<?xml version="1.0" encoding="UTF-8" standalone="no"?>
<!DOCTYPE svg PUBLIC "-//W3C//DTD SVG 1.1//EN"
 "http://www.w3.org/Graphics/SVG/1.1/DTD/svg11.dtd">
<!-- Generated by graphviz version 12.1.2 (20240928.0832)
 -->
<!-- Title: lab Pages: 1 -->
<svg width="830pt" height="504pt"
 viewBox="0.00 0.00 830.18 503.60" xmlns="http://www.w3.org/2000/svg" xmlns:xlink="http://www.w3.org/1999/xlink">
<g id="graph0" class="graph" transform="scale(1 1) rotate(0) translate(4 499.6)">
<title>lab</title>
<polygon fill="white" stroke="none" points="-4,4 -4,-499.6 826.18,-499.6 826.18,4 -4,4"/>
<!-- seats -->
<g id="node1" class="node">
<title>seats</title>
<polygon fill="#efefef" stroke="none" points="137.76,-120.2 137.76,-155.8 316.72,-155.8 316.72,-120.2 137.76,-120.2"/>
<polygon fill="none" stroke="black" points="137.76,-120.2 137.76,-155.8 316.72,-155.8 316.72,-120.2 137.76,-120.2"/>
<text text-anchor="start" x="147.5" y="-133.6" font-family="Arial Bold" font-size="18.00">seats</text>
<text text-anchor="start" x="182.49" y="-133.6" font-family="Arial" font-size="14.00">    </text>
<text text-anchor="start" x="213.61" y="-133.6" font-family="Arial" font-size="14.00" fill="#666666">[BASE TABLE]</text>
<polygon fill="none" stroke="black" points="137.76,-89.4 137.76,-120.2 316.72,-120.2 316.72,-89.4 137.76,-89.4"/>
<text text-anchor="start" x="144.76" y="-101.6" font-family="Arial" font-size="14.00">seat_id </text>
<text text-anchor="start" x="193.79" y="-101.6" font-family="Arial" font-size="14.00" fill="#666666">[int(11)]</text>
<polygon fill="none" stroke="black" points="137.76,-58.6 137.76,-89.4 316.72,-89.4 316.72,-58.6 137.76,-58.6"/>
<text text-anchor="start" x="144.76" y="-70.8" font-family="Arial" font-size="14.00">seat_number </text>
<text text-anchor="start" x="230.36" y="-70.8" font-family="Arial" font-size="14.00" fill="#666666">[varchar(20)]</text>
</g>
<!-- students -->
<g id="node2" class="node">
<title>students</title>
<polygon fill="#efefef" stroke="none" points="420.71,-135.6 420.71,-171.2 687.77,-171.2 687.77,-135.6 420.71,-135.6"/>
<polygon fill="none" stroke="black" points="420.71,-135.6 420.71,-171.2 687.77,-171.2 687.77,-135.6 420.71,-135.6"/>
<text text-anchor="start" x="462.49" y="-149" font-family="Arial Bold" font-size="18.00">students</text>
<text text-anchor="start" x="521.5" y="-149" font-family="Arial" font-size="14.00">    </text>
<text text-anchor="start" x="552.61" y="-149" font-family="Arial" font-size="14.00" fill="#666666">[BASE TABLE]</text>
<polygon fill="none" stroke="black" points="420.71,-104.8 420.71,-135.6 687.77,-135.6 687.77,-104.8 420.71,-104.8"/>
<text text-anchor="start" x="427.71" y="-117" font-family="Arial" font-size="14.00">student_id </text>
<text text-anchor="start" x="496.21" y="-117" font-family="Arial" font-size="14.00" fill="#666666">[int(11)]</text>
<polygon fill="none" stroke="black" points="420.71,-74 420.71,-104.8 687.77,-104.8 687.77,-74 420.71,-74"/>
<text text-anchor="start" x="427.71" y="-86.2" font-family="Arial" font-size="14.00">name </text>
<text text-anchor="start" x="466.62" y="-86.2" font-family="Arial" font-size="14.00" fill="#666666">[varchar(100)]</text>
<polygon fill="none" stroke="black" points="420.71,-43.2 420.71,-74 687.77,-74 687.77,-43.2 420.71,-43.2"/>
<text text-anchor="start" x="427.71" y="-55.4" font-family="Arial" font-size="14.00">grade </text>
<text text-anchor="start" x="467.41" y="-55.4" font-family="Arial" font-size="14.00" fill="#666666">[enum(&#39;B4&#39;,&#39;M1&#39;,&#39;M2&#39;,&#39;D1&#39;,&#39;D2&#39;,&#39;D3&#39;)]</text>
</g>
<!-- presence_status -->
<g id="node3" class="node">
<title>presence_status</title>
<polygon fill="#efefef" stroke="none" points="264.52,-416.8 264.52,-452.4 515.96,-452.4 515.96,-416.8 264.52,-416.8"/>
<polygon fill="none" stroke="black" points="264.52,-416.8 264.52,-452.4 515.96,-452.4 515.96,-416.8 264.52,-416.8"/>
<text text-anchor="start" x="271.52" y="-430.2" font-family="Arial Bold" font-size="18.00">presence_status</text>
<text text-anchor="start" x="384.47" y="-430.2" font-family="Arial" font-size="14.00">    </text>
<text text-anchor="start" x="415.59" y="-430.2" font-family="Arial" font-size="14.00" fill="#666666">[BASE TABLE]</text>
<polygon fill="none" stroke="black" points="264.52,-386 264.52,-416.8 515.96,-416.8 515.96,-386 264.52,-386"/>
<text text-anchor="start" x="271.52" y="-398.2" font-family="Arial" font-size="14.00">student_id </text>
<text text-anchor="start" x="340.01" y="-398.2" font-family="Arial" font-size="14.00" fill="#666666">[int(11)]</text>
<polygon fill="none" stroke="black" points="264.52,-355.2 264.52,-386 515.96,-386 515.96,-355.2 264.52,-355.2"/>
<text text-anchor="start" x="271.52" y="-367.4" font-family="Arial" font-size="14.00">seat_id </text>
<text text-anchor="start" x="320.55" y="-367.4" font-family="Arial" font-size="14.00" fill="#666666">[int(11)]</text>
<polygon fill="none" stroke="black" points="264.52,-324.4 264.52,-355.2 515.96,-355.2 515.96,-324.4 264.52,-324.4"/>
<text text-anchor="start" x="271.52" y="-336.6" font-family="Arial" font-size="14.00">status </text>
<text text-anchor="start" x="312.76" y="-336.6" font-family="Arial" font-size="14.00" fill="#666666">[enum(&#39;present&#39;,&#39;absent&#39;)]</text>
<polygon fill="none" stroke="black" points="264.52,-293.6 264.52,-324.4 515.96,-324.4 515.96,-293.6 264.52,-293.6"/>
<text text-anchor="start" x="271.52" y="-305.8" font-family="Arial" font-size="14.00">updated_at </text>
<text text-anchor="start" x="345.47" y="-305.8" font-family="Arial" font-size="14.00" fill="#666666">[datetime]</text>
</g>
<!-- presence_status&#45;&gt;seats -->
<g id="edge1" class="edge">
<title>presence_status:seat_id&#45;&gt;seats:seat_id</title>
<path fill="none" stroke="black" d="M253.26,-370.42C89.38,-364.4 311.93,-210.28 316.72,-199 333.1,-160.47 359.59,-104.8 317.72,-104.8"/>
<polygon fill="black" stroke="black" points="253.18,-370.42 263.1,-375.09 258.52,-370.51 262.85,-370.59 262.85,-370.59 262.85,-370.59 258.52,-370.51 263.26,-366.09 253.18,-370.42"/>
<text text-anchor="start" x="7" y="-380.6" font-family="Arial" font-size="10.00">FOREIGN KEY (seat_id) REFERENCES seats (seat_id)</text>
</g>
<!-- presence_status&#45;&gt;students -->
<g id="edge2" class="edge">
<title>presence_status:student_id&#45;&gt;students:student_id</title>
<path fill="none" stroke="black" d="M527.12,-400.56C580.79,-391.03 552.2,-302.47 515.96,-250.4 490.11,-213.26 446.64,-251.49 420.71,-214.4 396.73,-180.08 377.84,-120.2 419.71,-120.2"/>
<polygon fill="black" stroke="black" points="527.26,-400.55 516.93,-396.89 521.95,-400.99 517.63,-401.34 517.63,-401.34 517.63,-401.34 521.95,-400.99 517.67,-405.86 527.26,-400.55"/>
<text text-anchor="start" x="523.96" y="-411.4" font-family="Arial" font-size="10.00">FOREIGN KEY (student_id) REFERENCES students (student_id)</text>
</g>
</g>
</svg>
