<?xml version="1.0" encoding="UTF-8"?>
<svg version="1.1" xmlns="http://www.w3.org/2000/svg" width="500" height="500">
<path d="M0 0 C2.86318617 0.00314529 5.72532072 -0.02032403 8.58837891 -0.0456543 C24.05577029 -0.09929111 39.08804697 1.48244585 54.01416016 5.69067383 C54.79307617 5.9041748 55.57199219 6.11767578 56.37451172 6.33764648 C58.67679128 6.97884122 60.97152051 7.64088982 63.26416016 8.31567383 C63.93962891 8.51418945 64.61509766 8.71270508 65.31103516 8.91723633 C86.13711884 15.16506143 107.20281791 25.7694825 124.26416016 39.31567383 C125.10591797 39.96793945 125.94767578 40.62020508 126.81494141 41.29223633 C128.34495097 42.47817676 129.87048633 43.669939 131.38916016 44.87036133 C132.96514775 46.0851851 134.60849847 47.21189937 136.26416016 48.31567383 C136.26416016 48.97567383 136.26416016 49.63567383 136.26416016 50.31567383 C137.14817505 50.71290649 137.14817505 50.71290649 138.05004883 51.11816406 C140.33720344 52.35517954 141.85306392 53.64631378 143.68994141 55.47583008 C144.31892334 56.10078369 144.94790527 56.7257373 145.59594727 57.36962891 C146.24958252 58.03244873 146.90321777 58.69526855 147.57666016 59.37817383 C148.57934937 60.38883911 148.57934937 60.38883911 149.60229492 61.41992188 C162.26416016 74.32626648 162.26416016 74.32626648 162.26416016 78.31567383 C162.92416016 78.31567383 163.58416016 78.31567383 164.26416016 78.31567383 C165.64941406 80.08129883 165.64941406 80.08129883 167.24072266 82.56567383 C168.11760742 83.93175781 168.11760742 83.93175781 169.01220703 85.32543945 C169.94129883 86.80560547 169.94129883 86.80560547 170.88916016 88.31567383 C171.52144531 89.31791992 172.15373047 90.32016602 172.80517578 91.3527832 C177.8511286 99.45218439 182.29373804 107.64614037 186.26416016 116.31567383 C187.03953125 117.92442383 187.03953125 117.92442383 187.83056641 119.56567383 C199.61480349 145.16485203 203.61193816 172.46311515 203.63916016 200.37817383 C203.64124481 201.24836151 203.64332947 202.11854919 203.64547729 203.0151062 C203.6414629 217.8022353 202.61613846 232.21273761 199.07666016 246.62817383 C198.86307861 247.50570312 198.64949707 248.38323242 198.42944336 249.28735352 C192.07045775 274.39869688 180.48730685 297.27595542 165.01806641 317.96411133 C163.41771466 320.10979452 161.89897033 322.29348081 160.38916016 324.50317383 C159.33728516 325.89536133 159.33728516 325.89536133 158.26416016 327.31567383 C157.60416016 327.31567383 156.94416016 327.31567383 156.26416016 327.31567383 C156.00997314 327.89365723 155.75578613 328.47164063 155.49389648 329.06713867 C153.15503964 333.34366668 149.38634723 336.53011804 145.95166016 339.94067383 C145.13785889 340.74956055 144.32405762 341.55844727 143.4855957 342.3918457 C137.10942066 348.64558312 130.60565816 354.20620635 123.26416016 359.31567383 C122.68102051 359.72720703 122.09788086 360.13874023 121.49707031 360.56274414 C78.99069803 390.43574841 24.8956162 404.65514937 -26.73583984 396.31567383 C-40.0046096 393.92918784 -53.00314311 390.74626095 -65.73583984 386.31567383 C-67.3890625 385.74913086 -67.3890625 385.74913086 -69.07568359 385.17114258 C-77.14280222 382.24742322 -84.54205532 378.41078003 -92.02246094 374.25610352 C-93.5246436 373.43159402 -95.04497967 372.64033825 -96.56787109 371.85473633 C-124.21882676 357.51106218 -147.33179357 334.87406346 -164.73583984 309.31567383 C-165.31978516 308.48293945 -165.90373047 307.65020508 -166.50537109 306.79223633 C-167.33101562 305.59727539 -167.33101562 305.59727539 -168.17333984 304.37817383 C-168.91390625 303.31276367 -168.91390625 303.31276367 -169.66943359 302.22583008 C-170.73583984 300.31567383 -170.73583984 300.31567383 -170.73583984 297.31567383 C-171.39583984 297.31567383 -172.05583984 297.31567383 -172.73583984 297.31567383 C-197.34775613 248.62005136 -205.87390629 194.45803245 -189.23583984 141.50317383 C-188.42468163 139.09974208 -187.5931222 136.70304241 -186.73583984 134.31567383 C-186.18669922 132.73786133 -186.18669922 132.73786133 -185.62646484 131.12817383 C-180.66265355 117.52869083 -174.29254233 104.50263857 -166.79833984 92.12817383 C-166.08943604 90.95121948 -166.08943604 90.95121948 -165.36621094 89.75048828 C-164.21652798 87.89993689 -162.9838977 86.1013566 -161.73583984 84.31567383 C-161.07583984 84.31567383 -160.41583984 84.31567383 -159.73583984 84.31567383 C-159.52958984 83.65567383 -159.32333984 82.99567383 -159.11083984 82.31567383 C-157.24459732 78.24387196 -154.76022457 74.62770385 -151.73583984 71.31567383 C-151.07583984 71.31567383 -150.41583984 71.31567383 -149.73583984 71.31567383 C-149.42646484 70.69692383 -149.11708984 70.07817383 -148.79833984 69.44067383 C-148.11083984 68.06567383 -147.42333984 66.69067383 -146.73583984 65.31567383 C-146.07583984 65.31567383 -145.41583984 65.31567383 -144.73583984 65.31567383 C-144.73583984 64.65567383 -144.73583984 63.99567383 -144.73583984 63.31567383 C-144.07583984 63.31567383 -143.41583984 63.31567383 -142.73583984 63.31567383 C-142.73583984 62.65567383 -142.73583984 61.99567383 -142.73583984 61.31567383 C-142.07583984 61.31567383 -141.41583984 61.31567383 -140.73583984 61.31567383 C-140.50896484 60.75879883 -140.28208984 60.20192383 -140.04833984 59.62817383 C-138.36033948 56.65407795 -136.26907468 54.59558518 -133.73583984 52.31567383 C-133.07583984 52.31567383 -132.41583984 52.31567383 -131.73583984 52.31567383 C-131.73583984 51.65567383 -131.73583984 50.99567383 -131.73583984 50.31567383 C-122.86206809 42.44529676 -112.60755898 36.01419216 -102.67871094 29.5769043 C-101.13481462 28.57467153 -99.59975067 27.55883551 -98.06787109 26.53833008 C-78.21711958 13.85492955 -54.66696555 6.74101416 -31.73583984 2.31567383 C-30.8104541 2.12658447 -29.88506836 1.93749512 -28.93164062 1.74267578 C-19.31484513 -0.00491252 -9.74137864 -0.02229337 0 0 Z " fill="#FCFDFD" transform="translate(246.73583984375,53.684326171875)"/>
<path d="M0 0 C1.20743688 0.71746249 2.39764791 1.46528612 3.5625 2.25 C4.92375 3.1471875 4.92375 3.1471875 6.3125 4.0625 C11.4405138 9.04806898 13.73806874 14.69320172 13.9375 21.75 C13.92314475 28.71229488 12.30725107 33.44563584 8.5625 39.25 C9.13097656 39.40855469 9.69945312 39.56710938 10.28515625 39.73046875 C17.53373975 41.92077528 23.13043289 44.52802015 27.3125 51.0625 C30.68140426 57.60017559 31.4766791 65.05533305 32.5625 72.25 C33.80902344 72.34796875 35.05554688 72.4459375 36.33984375 72.546875 C71.88273278 75.57023278 71.88273278 75.57023278 81.5625 85.25 C84.21164212 104.80690212 74.00075362 125.99899518 62.5625 141.25 C47.05564531 160.4924748 26.95371654 173.03169998 2.5625 177.25 C-1.96945885 177.63281654 -6.45416846 177.6718911 -11 177.625 C-12.12857422 177.63660156 -13.25714844 177.64820313 -14.41992188 177.66015625 C-31.81166335 177.60015024 -48.36554748 171.31719873 -62.4375 161.25 C-63.21609375 160.69441406 -63.9946875 160.13882813 -64.796875 159.56640625 C-85.94737344 143.77646517 -97.99732346 120.96785423 -102.4375 95.25 C-102.8596339 91.83018109 -102.99464389 88.66039594 -102.4375 85.25 C-94.74320775 75.41840435 -78.25560453 75.00331095 -66.72802734 73.52734375 C-62.3059582 72.99190669 -57.88211612 72.54562814 -53.4375 72.25 C-53.25574219 71.16460937 -53.07398438 70.07921875 -52.88671875 68.9609375 C-52.63330466 67.51553863 -52.37937075 66.07023082 -52.125 64.625 C-52.00705078 63.91214844 -51.88910156 63.19929688 -51.76757812 62.46484375 C-50.56583158 55.74738869 -48.22894165 50.24796931 -43.4375 45.25 C-41.11467127 43.76102505 -38.69113495 42.59008804 -36.1875 41.4375 C-35.21296875 40.97053711 -35.21296875 40.97053711 -34.21875 40.49414062 C-32.63028029 39.73494554 -31.03458737 38.99089481 -29.4375 38.25 C-29.7984375 37.76273438 -30.159375 37.27546875 -30.53125 36.7734375 C-35.05928762 29.85560225 -35.70890524 23.36672478 -34.4375 15.25 C-31.68497808 7.54086906 -26.60215921 2.94832885 -19.4375 -0.75 C-13.25996439 -2.80917854 -5.91783996 -2.87986487 0 0 Z " fill="#173556" transform="translate(260.4375,194.75)"/>
<path d="M0 0 C0.495 0.99 0.495 0.99 1 2 C2.8819705 2.72829672 2.8819705 2.72829672 5.125 3.3125 C12.52941159 5.69836596 17.32224432 9.10121176 20.93359375 16.109375 C23.17368413 22.18141485 24.03738862 28.62172132 25 35 C26.86978516 35.14695312 26.86978516 35.14695312 28.77734375 35.296875 C64.32023278 38.32023278 64.32023278 38.32023278 74 48 C76.64914212 67.55690212 66.43825362 88.74899518 55 104 C39.49314531 123.2424748 19.39121654 135.78169998 -5 140 C-9.53195885 140.38281654 -14.01666846 140.4218911 -18.5625 140.375 C-19.69107422 140.38660156 -20.81964844 140.39820313 -21.98242188 140.41015625 C-38.88800801 140.3518276 -54.99129844 134.29518551 -69 125 C-66.33333333 124.33333333 -63.66666667 123.66666667 -61 123 C-61 122.34 -61 121.68 -61 121 C-59.45737855 121.28657394 -57.91594394 121.57953877 -56.375 121.875 C-55.51648438 122.03742188 -54.65796875 122.19984375 -53.7734375 122.3671875 C-50.79662182 123.0464046 -47.89663438 124.03445521 -45 125 C-45 109.82 -45 94.64 -45 79 C-48.63 79 -52.26 79 -56 79 C-60.51875568 76.74062216 -63.08587441 74.64423301 -65 70 C-65.97575488 61.86870937 -65.03764753 53.89588419 -63 46 C-62.67 46 -62.34 46 -62 46 C-62 52.6 -62 59.2 -62 66 C-59.69 66.99 -57.38 67.98 -55 69 C-55 71.64 -55 74.28 -55 77 C-52.525 76.01 -52.525 76.01 -50 75 C-50.66 74.34 -51.32 73.68 -52 73 C-51.60603027 72.61972656 -51.21206055 72.23945313 -50.80615234 71.84765625 C-44.69990883 65.01434548 -43.98558806 56.70961474 -42.625 48 C-42.36534242 46.44626872 -42.1036405 44.89287763 -41.83984375 43.33984375 C-41.20290976 39.56340808 -40.59386721 35.78343695 -40 32 C-38.35 31.67 -36.7 31.34 -35 31 C-34.67 62.35 -34.34 93.7 -34 126 C-32.02 126 -30.04 126 -28 126 C-26.06335305 120.96451573 -25.44413683 116.23179919 -24.96484375 110.91015625 C-24.88126114 110.04740585 -24.79767853 109.18465546 -24.71156311 108.29576111 C-24.44694979 105.55192329 -24.19184966 102.8073065 -23.9375 100.0625 C-23.67770207 97.32147503 -23.41591565 94.58065179 -23.15272522 91.83995056 C-22.99004938 90.13946314 -22.82963262 88.43875755 -22.67185974 86.73780823 C-22.23824796 82.13395956 -21.69373795 77.57210341 -21 73 C-18.525 72.505 -18.525 72.505 -16 72 C-14.36548019 76.39717714 -13.61293866 80.38999933 -13.21875 85.05859375 C-13.13022766 86.05790672 -13.13022766 86.05790672 -13.03991699 87.07740784 C-12.85308977 89.19691076 -12.67587542 91.31706264 -12.5 93.4375 C-12.50402724 110.84152876 -12.50402724 110.84152876 -8 126 C-6.02 126 -4.04 126 -2 126 C-1.67 94.65 -1.34 63.3 -1 31 C0.32 31 1.64 31 3 31 C5.40450275 40.86212295 7.58250781 50.69858989 9.2890625 60.70703125 C9.89389851 63.50855188 10.55771388 65.55304449 12 68 C13.98 68 15.96 68 18 68 C18.11086133 61.99685904 17.80081137 56.37522455 16.828125 50.45703125 C16.64259064 49.29889168 16.64259064 49.29889168 16.45330811 48.11735535 C16.19142536 46.5008746 15.92569902 44.88501215 15.65625 43.26977539 C15.24965102 40.81038915 14.86661982 38.34803946 14.484375 35.88476562 C14.22538833 34.30445248 13.96501901 32.72436518 13.703125 31.14453125 C13.59252747 30.4162764 13.48192993 29.68802155 13.36798096 28.93769836 C12.2790275 22.65562307 10.08654908 18.53297483 4.9375 14.75 C3.968125 14.1725 2.99875 13.595 2 13 C1.01 12.34 0.02 11.68 -1 11 C0.65 11 2.3 11 4 11 C3.505 8.525 3.505 8.525 3 6 C2.01 6 1.02 6 0 6 C-0.38218767 4.34385343 -0.71395102 2.67542976 -1 1 C-0.67 0.67 -0.34 0.34 0 0 Z " fill="#1A3859" transform="translate(268,232)"/>
<path d="M0 0 C0.67398834 -0.00700928 1.34797668 -0.01401855 2.04238892 -0.02124023 C4.25394802 -0.03873958 6.46421082 -0.02722786 8.67578125 -0.01367188 C10.22225183 -0.01636915 11.76872075 -0.02025353 13.31518555 -0.02526855 C16.54980684 -0.03115263 19.78398507 -0.02263642 23.01855469 -0.00390625 C27.15465058 0.01888328 31.28970815 0.00575424 35.42576599 -0.01819611 C38.61722569 -0.032684 41.80844119 -0.02803454 44.99990845 -0.01768494 C46.52446619 -0.01502588 48.04904646 -0.01825842 49.57357788 -0.02760315 C51.70849926 -0.037819 53.84176383 -0.02220127 55.9765625 0 C57.18868408 0.00318237 58.40080566 0.00636475 59.6496582 0.00964355 C64.25290743 0.70997701 67.53174858 2.69885953 70.44921875 6.34179688 C72.93571195 11.41041764 73.99284334 15.88784472 72.98828125 21.51757812 C70.95698947 25.91871032 69.14666092 27.46426381 64.86328125 29.29492188 C62.63075406 30.51682792 62.63075406 30.51682792 60.98828125 32.51757812 C59.9590408 37.30756426 60.23586332 41.95889741 60.48828125 46.83007812 C60.524375 48.14298828 60.56046875 49.45589844 60.59765625 50.80859375 C60.69189003 54.04787999 60.82334037 57.28124774 60.98828125 60.51757812 C61.8498584 60.84008545 62.71143555 61.16259277 63.59912109 61.49487305 C76.71672056 66.46120321 89.91151489 72.44081176 99.98828125 82.51757812 C99.73567878 86.3066152 97.70978682 88.05944406 94.98828125 90.51757812 C91.7309586 89.05543828 88.89092596 87.1209956 85.96362305 85.09008789 C76.33256751 78.43132237 66.52668956 72.9931601 55.01171875 70.35351562 C52.16352699 69.17684953 51.47885376 68.25922755 49.98828125 65.51757812 C49.56808264 62.25054378 49.63995226 59.00976723 49.6953125 55.72070312 C49.69955734 54.77193298 49.70380219 53.82316284 49.70817566 52.84564209 C49.72495043 49.81933047 49.76260069 46.79368802 49.80078125 43.76757812 C49.81582963 41.71420233 49.82951777 39.66081609 49.84179688 37.60742188 C49.87485008 32.57721665 49.92662442 27.54751079 49.98828125 22.51757812 C50.60316406 22.48019531 51.21804688 22.4428125 51.8515625 22.40429688 C52.65980469 22.33855469 53.46804688 22.2728125 54.30078125 22.20507812 C55.10128906 22.14707031 55.90179688 22.0890625 56.7265625 22.02929688 C59.39286406 21.42604039 60.35012977 20.6774339 61.98828125 18.51757812 C62.40507422 15.97526966 62.40507422 15.97526966 61.98828125 13.51757812 C59.25366366 10.78296053 57.74543452 11.26419547 53.91796875 11.25878906 C52.64324707 11.25248474 51.36852539 11.24618042 50.05517578 11.23968506 C48.65787621 11.24326473 47.26057788 11.24736667 45.86328125 11.25195312 C44.43603448 11.25060641 43.00878816 11.24866583 41.58154297 11.24615479 C38.5888228 11.24320378 35.59622194 11.2475003 32.60351562 11.25683594 C28.76311752 11.26823057 24.92299893 11.26167095 21.08261108 11.24969101 C18.13498825 11.2424717 15.18743194 11.24476064 12.23980713 11.24994659 C10.82358772 11.2512829 9.40736231 11.24963603 7.9911499 11.24498749 C6.01363232 11.23992138 4.03609363 11.24900905 2.05859375 11.25878906 C0.93211426 11.26038025 -0.19436523 11.26197144 -1.35498047 11.26361084 C-4.16645711 11.24790997 -4.16645711 11.24790997 -6.01171875 13.51757812 C-5.84754843 17.08350432 -5.84754843 17.08350432 -5.01171875 20.51757812 C-2.71541881 21.6657281 -0.93473789 21.82527621 1.61328125 22.08007812 C2.43054688 22.16386719 3.2478125 22.24765625 4.08984375 22.33398438 C5.02957031 22.42486328 5.02957031 22.42486328 5.98828125 22.51757812 C6.06236572 28.72889586 6.11685239 34.93995717 6.15307617 41.15161133 C6.16817485 43.26526366 6.18865551 45.37888461 6.21459961 47.49243164 C6.25093522 50.52823628 6.26799669 53.56362719 6.28125 56.59960938 C6.29673386 57.54657181 6.31221771 58.49353424 6.32817078 59.4691925 C6.32839737 60.349879 6.32862396 61.23056549 6.32885742 62.13793945 C6.33885017 63.30042961 6.33885017 63.30042961 6.3490448 64.48640442 C5.88793612 67.08254207 5.05101415 67.91825815 2.98828125 69.51757812 C0.72384461 70.34616898 -1.57411711 71.08485581 -3.88671875 71.76757812 C-28.71263446 79.56700322 -49.22638856 97.6811417 -61.36987305 120.51245117 C-74.1094663 145.63376675 -77.75580532 175.421993 -69.01171875 202.51757812 C-62.99434432 220.07386125 -54.09604978 234.4332471 -41.01171875 247.51757812 C-40.27179688 248.2575 -39.531875 248.99742187 -38.76953125 249.75976562 C-17.76269002 269.53543667 9.12235955 275.35256629 37.08349609 274.65820312 C61.86918548 273.45829078 85.57603534 259.97437885 102.51171875 242.40429688 C124.12167923 217.21539972 130.88132098 188.09141771 128.98828125 155.51757812 C127.46585382 141.44220842 121.3785206 128.00670852 114.98828125 115.51757812 C115.93945259 114.34506503 116.89945134 113.17970797 117.86328125 112.01757812 C118.39695312 111.36789063 118.930625 110.71820313 119.48046875 110.04882812 C119.97804688 109.54351562 120.475625 109.03820312 120.98828125 108.51757812 C121.64828125 108.51757812 122.30828125 108.51757812 122.98828125 108.51757812 C129.07695286 119.23576257 133.9777635 129.54481833 136.98828125 141.51757812 C137.30667969 142.72027344 137.62507812 143.92296875 137.953125 145.16210938 C144.97005396 176.043064 138.42220548 207.8391297 121.98828125 234.51757812 C105.30151237 260.10395707 79.5625764 277.35580287 49.98828125 284.51757812 C32.35252286 287.52147104 11.99693334 287.26197437 -5.01171875 281.51757812 C-6.17316406 281.13214844 -7.33460938 280.74671875 -8.53125 280.34960938 C-24.59037897 274.57280978 -37.67247787 265.15408167 -50.01171875 253.51757812 C-50.68847656 252.90527344 -51.36523438 252.29296875 -52.0625 251.66210938 C-72.30619267 232.63547238 -83.29272477 203.74794496 -84.30078125 176.36523438 C-84.95620975 144.83768827 -75.83538648 116.38745096 -55.01171875 92.51757812 C-54.32980469 91.72222656 -53.64789063 90.926875 -52.9453125 90.10742188 C-42.3202214 78.6506211 -28.27040468 69.72115634 -14.01171875 63.51757812 C-13.16222656 63.12957031 -12.31273437 62.7415625 -11.4375 62.34179688 C-9.01171875 61.51757812 -9.01171875 61.51757812 -4.01171875 61.51757812 C-4.01171875 51.61757812 -4.01171875 41.71757812 -4.01171875 31.51757812 C-5.66171875 31.18757813 -7.31171875 30.85757813 -9.01171875 30.51757812 C-13.64753486 27.6477872 -15.40062903 24.69002407 -17.01171875 19.51757812 C-17.68503902 14.80433624 -17.50137466 11.51572287 -15.38671875 7.20507812 C-10.78311599 1.99573816 -6.9504262 0.01824804 0 0 Z " fill="#193655" transform="translate(222.01171875,106.482421875)"/>
<path d="M0 0 C1.24523437 -0.00644531 2.49046875 -0.01289063 3.7734375 -0.01953125 C12.75811714 0.08472136 21.05564244 1.17505741 27.8125 7.5625 C31.57911015 12.6374005 32.35208552 18.52879088 33.375 24.625 C33.62660889 26.05730957 33.62660889 26.05730957 33.88330078 27.51855469 C34.45728844 30.80178419 35.01369952 34.08746943 35.5625 37.375 C35.74184082 38.44024902 35.92118164 39.50549805 36.10595703 40.60302734 C37.07686914 46.6894979 37.66041812 52.45996851 37.375 58.625 C36.375 59.625 36.375 59.625 33.5 60 C32.46875 59.87625 31.4375 59.7525 30.375 59.625 C27.52988102 55.8979943 26.65486507 52.23136271 25.76953125 47.6796875 C25.57613411 46.70215012 25.57613411 46.70215012 25.37882996 45.7048645 C25.10977737 44.33586012 24.84530538 42.96594828 24.58520508 41.59521484 C24.18705266 39.49764329 23.775465 37.40306221 23.36132812 35.30859375 C21.375 25.13488917 21.375 25.13488917 21.375 21.625 C20.055 21.625 18.735 21.625 17.375 21.625 C17.37722061 22.81294662 17.37944122 24.00089325 17.38172913 25.22483826 C17.40195892 36.39407986 17.41697135 47.56331777 17.42681217 58.73257351 C17.43204141 64.47545062 17.4391398 70.21831301 17.45043945 75.96118164 C17.46126687 81.49839995 17.46727652 87.03560404 17.46987724 92.57283211 C17.47173176 94.69044277 17.47535286 96.80805262 17.48073006 98.92565727 C17.48793856 101.88071274 17.48899102 104.83570871 17.48852539 107.79077148 C17.49212067 108.67549637 17.49571594 109.56022125 17.49942017 110.47175598 C17.48905216 116.51094784 17.48905216 116.51094784 16.375 117.625 C13.4375 117.8125 13.4375 117.8125 10.375 117.625 C7.57329705 114.82329705 7.79982965 112.61804511 7.33984375 108.703125 C7.25626114 108.00668884 7.17267853 107.31025269 7.08656311 106.5927124 C6.9103338 105.11030012 6.73828743 103.62738558 6.57006836 102.14404297 C6.3180953 99.92429172 6.05387684 97.70629759 5.78710938 95.48828125 C4.84469052 87.52164398 4.09345826 79.57941656 3.62329102 71.56933594 C3.39400784 68.85040274 2.97045699 66.28501561 2.375 63.625 C1.055 63.625 -0.265 63.625 -1.625 63.625 C-1.73569824 64.63175781 -1.84639648 65.63851562 -1.96044922 66.67578125 C-2.38048932 70.49296962 -2.80209562 74.30998379 -3.22412109 78.12695312 C-3.40487176 79.76362641 -3.58522502 81.40034365 -3.76513672 83.03710938 C-4.28745431 87.78757325 -4.81878524 92.53688903 -5.36071777 97.28515625 C-5.53774484 98.85247952 -5.71129716 100.42019895 -5.88146973 101.98828125 C-6.12399948 104.22232403 -6.37724778 106.45491619 -6.6328125 108.6875 C-6.77605957 109.97785156 -6.91930664 111.26820313 -7.06689453 112.59765625 C-7.625 115.625 -7.625 115.625 -9.625 117.625 C-12.6875 117.8125 -12.6875 117.8125 -15.625 117.625 C-17.51385195 115.73614805 -16.74510635 112.98448241 -16.74942017 110.47175598 C-16.74582489 109.5870311 -16.74222961 108.70230621 -16.73852539 107.79077148 C-16.73867142 106.86403625 -16.73881744 105.93730103 -16.7389679 104.98248291 C-16.73826838 101.90366313 -16.73047421 98.82490303 -16.72265625 95.74609375 C-16.72079221 93.61759982 -16.71936824 91.48910547 -16.71836853 89.36061096 C-16.71454228 83.7463768 -16.70471108 78.13216832 -16.69366455 72.51794434 C-16.68345273 66.79386747 -16.6788714 61.06978647 -16.67382812 55.34570312 C-16.66308891 44.10545744 -16.6460112 32.86523085 -16.625 21.625 C-17.945 21.955 -19.265 22.285 -20.625 22.625 C-20.79104736 23.6037207 -20.95709473 24.58244141 -21.12817383 25.59082031 C-21.7487471 29.23067931 -22.38400992 32.86784756 -23.02368164 36.50439453 C-23.29818945 38.07694371 -23.56873917 39.65018927 -23.83520508 41.22412109 C-24.21951721 43.48991665 -24.61812117 45.75280401 -25.01953125 48.015625 C-25.13529007 48.71681458 -25.25104889 49.41800415 -25.37031555 50.14044189 C-26.06812487 53.98388805 -26.78422314 56.85440345 -29.625 59.625 C-32.6875 60.0625 -32.6875 60.0625 -35.625 59.625 C-40.32344982 52.57732526 -35.64932885 40.2255685 -34.20581055 32.15600586 C-33.8117773 29.93342352 -33.43619624 27.70817496 -33.06054688 25.48242188 C-32.80582071 24.04667349 -32.54999893 22.61111896 -32.29296875 21.17578125 C-32.06891357 19.89356689 -31.8448584 18.61135254 -31.61401367 17.2902832 C-30.20610713 12.07258364 -28.48680811 8.09431294 -24.12353516 4.65087891 C-15.95350008 0.54545387 -9.07247858 -0.23626246 0 0 Z " fill="#F9FBFB" transform="translate(249.625,241.375)"/>
<path d="M0 0 C-0.0721875 0.55945313 -0.144375 1.11890625 -0.21875 1.6953125 C-0.82037729 6.89270379 -1.16369849 12.08240258 -1.3125 17.3125 C-1.34988281 18.46363281 -1.38726562 19.61476563 -1.42578125 20.80078125 C-0.91477106 24.64038991 0.45419442 26.16295828 3 29 C3 29.66 3 30.32 3 31 C10.425 31.99 10.425 31.99 18 33 C18 48.18 18 63.36 18 79 C12 78 12 78 10 76 C8.5459375 75.443125 8.5459375 75.443125 7.0625 74.875 C-0.66726802 71.69882698 -7.25893982 65.94933208 -13 60 C-13.825 59.16082031 -14.65 58.32164062 -15.5 57.45703125 C-20.98775169 51.65201892 -24.81857024 46.29640648 -28 39 C-28.68272823 37.72659678 -29.37005932 36.45564807 -30.0625 35.1875 C-34.65816801 25.9027561 -36.62902862 16.29445585 -37 6 C-30.7004894 3.67160946 -24.58101948 2.24269439 -17.9375 1.3125 C-17.09123047 1.18294922 -16.24496094 1.05339844 -15.37304688 0.91992188 C-10.19266944 0.16503264 -5.23376954 -0.12706261 0 0 Z " fill="#2160A4" transform="translate(205,278)"/>
<path d="M0 0 C-0.23590753 13.21082157 -7.98174861 28.0262936 -16.578125 37.79296875 C-18 39 -18 39 -20 39 C-20.2475 39.5775 -20.495 40.155 -20.75 40.75 C-22.18299988 43.32939979 -23.78424676 45.06121592 -26 47 C-26.66 47 -27.32 47 -28 47 C-28 47.66 -28 48.32 -28 49 C-30.13797716 50.55543844 -32.26065532 51.97941702 -34.5 53.375 C-35.45869995 53.98009399 -35.45869995 53.98009399 -36.43676758 54.59741211 C-48.28781668 62 -48.28781668 62 -53 62 C-53 46.82 -53 31.64 -53 16 C-47.555 15.505 -47.555 15.505 -42 15 C-37.87474947 13.08470511 -36.00153792 11.48639401 -34.34375 7.3515625 C-33.9003125 6.24554688 -33.456875 5.13953125 -33 4 C-31.22496094 3.81824219 -31.22496094 3.81824219 -29.4140625 3.6328125 C-18.15444628 2.47790027 -18.15444628 2.47790027 -7.04296875 0.3671875 C-4.66563237 -0.06009667 -2.41033479 -0.05889125 0 0 Z " fill="#2160A6" transform="translate(330,295)"/>
<path d="M0 0 C3.60067938 1.65901609 5.95227092 3.86955574 8.2890625 7.0546875 C9.0390625 9.6171875 9.0390625 9.6171875 8.2890625 12.0546875 C5.7265625 14.3671875 5.7265625 14.3671875 4.05859375 15.6171875 C2.09447664 17.21276166 0.55189742 18.93943698 -1.0859375 20.8671875 C-3.52112139 23.72611485 -6.03212911 26.42242211 -8.7109375 29.0546875 C-11.98295878 32.276273 -15.00409805 35.64060895 -17.99609375 39.12109375 C-20.20653051 41.61349966 -22.56935309 43.92466317 -24.9453125 46.2578125 C-27.46341797 48.82048621 -29.79716455 51.52925181 -32.1328125 54.2578125 C-32.65359375 54.85078125 -33.174375 55.44375 -33.7109375 56.0546875 C-34.16984375 56.64765625 -34.62875 57.240625 -35.1015625 57.8515625 C-36.7109375 59.0546875 -36.7109375 59.0546875 -38.97802734 58.92578125 C-44.21218929 57.25743304 -47.74674752 52.68308335 -51.54248047 48.85449219 C-53.08485946 47.30576997 -54.65203978 45.78563981 -56.22265625 44.265625 C-57.20734782 43.28547764 -58.19047722 42.30375783 -59.171875 41.3203125 C-60.51451416 39.98661621 -60.51451416 39.98661621 -61.88427734 38.62597656 C-63.7109375 36.0546875 -63.7109375 36.0546875 -63.57177734 33.33813477 C-62.66157625 30.9237528 -61.78016568 29.55672694 -59.9609375 27.7421875 C-59.22617187 26.97455078 -59.22617187 26.97455078 -58.4765625 26.19140625 C-55.90970677 24.5388509 -54.72226305 24.4471777 -51.7109375 25.0546875 C-49.3477702 26.81438829 -47.39710909 28.89816214 -45.3984375 31.0546875 C-44.57375977 31.91320312 -44.57375977 31.91320312 -43.73242188 32.7890625 C-42.3803434 34.19992699 -41.04405415 35.62589262 -39.7109375 37.0546875 C-36.51729797 35.67608822 -34.71731981 34.17359922 -32.5234375 31.4921875 C-29.75633387 28.22796353 -26.89825711 25.10755858 -23.8984375 22.0546875 C-22.77501953 20.91 -22.77501953 20.91 -21.62890625 19.7421875 C-19.7109375 18.0546875 -19.7109375 18.0546875 -17.7109375 18.0546875 C-17.41123047 17.02988281 -17.41123047 17.02988281 -17.10546875 15.984375 C-15.2040144 11.989723 -12.49878245 9.29035547 -9.3984375 6.1796875 C-8.54475586 5.27089844 -8.54475586 5.27089844 -7.67382812 4.34375 C-3.44325288 0.06946043 -3.44325288 0.06946043 0 0 Z " fill="#28CE35" transform="translate(346.7109375,179.9453125)"/>
<path d="M0 0 C1.20743688 0.71746249 2.39764791 1.46528612 3.5625 2.25 C4.92375 3.1471875 4.92375 3.1471875 6.3125 4.0625 C11.50332498 9.1091354 13.72984965 14.73971459 13.875 21.875 C13.85550533 28.19127194 12.94527698 31.96441097 9.5625 37.25 C7.4239515 35.1114515 7.13594937 34.11724686 6.5625 31.25 C5.2425 30.92 3.9225 30.59 2.5625 30.25 C2.2325 31.24 1.9025 32.23 1.5625 33.25 C-3.38721325 36.65292786 -8.45982229 37.95214707 -14.36328125 36.921875 C-19.05354317 35.40261879 -21.66895204 32.54006265 -24.1875 28.3125 C-25.40760261 25.32324861 -26.48293028 22.33399449 -27.4375 19.25 C-28.0975 19.91 -28.7575 20.57 -29.4375 21.25 C-30.7575 19.93 -32.0775 18.61 -33.4375 17.25 C-33.7675 17.91 -34.0975 18.57 -34.4375 19.25 C-34.12524571 13.1610414 -31.31831319 8.77206344 -27.4375 4.25 C-19.67110309 -1.94846395 -9.3234495 -4.53717485 0 0 Z " fill="#1C3958" transform="translate(260.4375,194.75)"/>
<path d="M0 0 C0.53625 0.2475 1.0725 0.495 1.625 0.75 C0.965 0.75 0.305 0.75 -0.375 0.75 C-0.375 1.41 -0.375 2.07 -0.375 2.75 C-1.035 2.75 -1.695 2.75 -2.375 2.75 C-2.03055119 5.22266765 -2.03055119 5.22266765 -1.375 7.75 C-0.715 8.08 -0.055 8.41 0.625 8.75 C0.625 8.09 0.625 7.43 0.625 6.75 C1.43339325 6.99114784 1.43339325 6.99114784 2.25811768 7.23716736 C5.04932917 7.84193945 7.63829298 7.91259199 10.49511719 7.95532227 C11.67603943 7.97526749 12.85696167 7.99521271 14.07366943 8.01576233 C15.34357727 8.03247482 16.61348511 8.04918732 17.921875 8.06640625 C19.22578186 8.08718735 20.52968872 8.10796844 21.87310791 8.12937927 C25.33195808 8.18445236 28.7908664 8.2339264 32.24981689 8.28222656 C35.78248238 8.33254972 39.31506389 8.38817922 42.84765625 8.44335938 C49.77336463 8.55076021 56.69914894 8.65224497 63.625 8.75 C63.625 9.08 63.625 9.41 63.625 9.75 C62.44775864 9.76213028 62.44775864 9.76213028 61.24673462 9.77450562 C53.85970432 9.85236372 46.47287407 9.93962726 39.08608437 10.03752708 C35.28822119 10.08752784 31.49038634 10.13385725 27.69238281 10.171875 C24.02885046 10.20868049 20.365553 10.25502693 16.70222092 10.30806351 C15.30279017 10.32663279 13.90330902 10.34173136 12.50380325 10.35334396 C10.5475205 10.37016243 8.59136619 10.40033353 6.63525391 10.43115234 C5.5205069 10.44447601 4.40575989 10.45779968 3.25723267 10.4715271 C0.46815432 10.48765198 0.46815432 10.48765198 -1.375 12.75 C-1.21082968 16.31592619 -1.21082968 16.31592619 -0.375 19.75 C1.92129994 20.89814997 3.70198086 21.05769809 6.25 21.3125 C7.06726563 21.39628906 7.88453125 21.48007813 8.7265625 21.56640625 C9.66628906 21.65728516 9.66628906 21.65728516 10.625 21.75 C10.69908447 27.96131774 10.75357114 34.17237905 10.78979492 40.3840332 C10.8048936 42.49768554 10.82537426 44.61130648 10.85131836 46.72485352 C10.88765397 49.76065815 10.90471544 52.79604906 10.91796875 55.83203125 C10.93345261 56.77899368 10.94893646 57.72595612 10.96488953 58.70161438 C10.96511612 59.58230087 10.96534271 60.46298737 10.96557617 61.37036133 C10.97223801 62.14535477 10.97889984 62.92034821 10.98576355 63.71882629 C10.5235164 66.32137376 9.69579994 67.14827081 7.625 68.75 C5.18440295 69.67975126 2.80591505 70.4988254 0.3125 71.25 C-3.50950866 72.42193144 -7.1337513 73.62711571 -10.7109375 75.44921875 C-13.375 76.75 -13.375 76.75 -15.6875 76.0625 C-17.375 74.75 -17.375 74.75 -18.375 72.75 C-20.01863134 72.02840576 -21.68550386 71.35648579 -23.375 70.75 C-19.62100721 67.47947598 -15.94758715 65.45123331 -11.375 63.5 C-9.580625 62.71882813 -9.580625 62.71882813 -7.75 61.921875 C-4.375 60.75 -4.375 60.75 0.625 60.75 C0.625 50.85 0.625 40.95 0.625 30.75 C-1.025 30.42 -2.675 30.09 -4.375 29.75 C-9.01081611 26.88020907 -10.76391028 23.92244595 -12.375 18.75 C-13.04832027 14.03675811 -12.86465591 10.74814474 -10.75 6.4375 C-4.63031915 -0.48740202 -4.63031915 -0.48740202 0 0 Z " fill="#1C3958" transform="translate(217.375,107.25)"/>
<path d="M0 0 C3.93783432 2.06506386 6.42587129 4.11306534 7.96484375 8.27734375 C8.64119468 13.32461257 8.5410723 17.10354486 6.27734375 21.71484375 C3.46520425 24.83099833 0.66362559 26.42795283 -3.03515625 28.27734375 C-7.70588719 28.40812422 -11.7605111 27.94372566 -15.47265625 24.96484375 C-19.79572075 20.43089805 -20.54006409 16.97523644 -20.421875 10.8203125 C-19.81350781 6.81983733 -17.98217944 4.00721786 -15.03515625 1.27734375 C-10.3927223 -1.56340639 -5.12000267 -1.81804317 0 0 Z " fill="#F8FAFB" transform="translate(256.03515625,203.72265625)"/>
<path d="M0 0 C1.86170334 0.0001133 1.86170334 0.0001133 3.76101685 0.00022888 C5.12046346 0.00533589 6.47990966 0.01055189 7.83935547 0.01586914 C9.22655181 0.01773397 10.61374881 0.01915757 12.00094604 0.02015686 C15.65388809 0.02397691 19.30679044 0.03380284 22.9597168 0.04486084 C26.68651797 0.05508595 30.41332556 0.05965684 34.14013672 0.06469727 C41.45395691 0.07542556 48.76774438 0.09249585 56.08154297 0.11352539 C56.08154297 1.10352539 56.08154297 2.09352539 56.08154297 3.11352539 C57.07154297 3.60852539 57.07154297 3.60852539 58.08154297 4.11352539 C58.08154297 6.11352539 58.08154297 8.11352539 58.08154297 10.11352539 C50.19704037 10.0291109 42.31276281 9.93422355 34.42855453 9.82599831 C30.76751234 9.77607219 27.10649847 9.729742 23.4453125 9.69165039 C19.91144511 9.65475076 16.37781693 9.60837844 12.84415436 9.55546188 C10.8412304 9.52793576 8.8381797 9.51019728 6.83514404 9.49258423 C5.6141803 9.47271454 4.39321655 9.45284485 3.13525391 9.43237305 C2.06047791 9.41904938 0.9857019 9.40572571 -0.12164307 9.39199829 C-2.88791828 9.11656607 -4.56006018 8.53886911 -6.91845703 7.11352539 C-6.91845703 7.77352539 -6.91845703 8.43352539 -6.91845703 9.11352539 C-7.90845703 8.78352539 -8.89845703 8.45352539 -9.91845703 8.11352539 C-9.91845703 6.46352539 -9.91845703 4.81352539 -9.91845703 3.11352539 C-9.25845703 3.11352539 -8.59845703 3.11352539 -7.91845703 3.11352539 C-7.91845703 2.45352539 -7.91845703 1.79352539 -7.91845703 1.11352539 C-5.19367551 -0.24886537 -3.05004848 -0.00617419 0 0 Z " fill="#153150" transform="translate(224.91845703125,106.886474609375)"/>
<path d="M0 0 C0.495 1.485 0.495 1.485 1 3 C-4.55162995 12.80053085 -14.92212703 22.95171484 -25 28 C-29.04815947 28.97939342 -31.06907489 29.31030837 -35 28 C-35 27.34 -35 26.68 -35 26 C-34.34 26 -33.68 26 -33 26 C-33 25.01 -33 24.02 -33 23 C-32.443125 22.773125 -31.88625 22.54625 -31.3125 22.3125 C-28.35823409 20.63575448 -26.33152149 18.45423315 -24 16 C-22 14 -22 14 -19.8125 13.3125 C-15.23851142 11.177972 -11.19051132 7.42070636 -8.9453125 2.85546875 C-8 1 -8 1 -5.5625 -0.3125 C-3 -1 -3 -1 0 0 Z " fill="#173454" transform="translate(324,330)"/>
<path d="M0 0 C0.53625 0.2475 1.0725 0.495 1.625 0.75 C0.965 0.75 0.305 0.75 -0.375 0.75 C-0.375 1.41 -0.375 2.07 -0.375 2.75 C-1.035 2.75 -1.695 2.75 -2.375 2.75 C-2.03055119 5.22266765 -2.03055119 5.22266765 -1.375 7.75 C-0.715 8.08 -0.055 8.41 0.625 8.75 C0.625 8.09 0.625 7.43 0.625 6.75 C1.43339325 6.99114784 1.43339325 6.99114784 2.25811768 7.23716736 C5.04932917 7.84193945 7.63829298 7.91259199 10.49511719 7.95532227 C11.67603943 7.97526749 12.85696167 7.99521271 14.07366943 8.01576233 C15.34357727 8.03247482 16.61348511 8.04918732 17.921875 8.06640625 C19.22578186 8.08718735 20.52968872 8.10796844 21.87310791 8.12937927 C25.33195808 8.18445236 28.7908664 8.2339264 32.24981689 8.28222656 C35.78248238 8.33254972 39.31506389 8.38817922 42.84765625 8.44335938 C49.77336463 8.55076021 56.69914894 8.65224497 63.625 8.75 C63.625 9.08 63.625 9.41 63.625 9.75 C62.44775864 9.76213028 62.44775864 9.76213028 61.24673462 9.77450562 C53.85970432 9.85236372 46.47287407 9.93962726 39.08608437 10.03752708 C35.28822119 10.08752784 31.49038634 10.13385725 27.69238281 10.171875 C24.02885046 10.20868049 20.365553 10.25502693 16.70222092 10.30806351 C15.30279017 10.32663279 13.90330902 10.34173136 12.50380325 10.35334396 C10.5475205 10.37016243 8.59136619 10.40033353 6.63525391 10.43115234 C5.5205069 10.44447601 4.40575989 10.45779968 3.25723267 10.4715271 C0.46815432 10.48765198 0.46815432 10.48765198 -1.375 12.75 C-1.13635558 17.78505052 -1.13635558 17.78505052 1.625 21.75 C-0.70714148 22.95628008 -2.87142139 23.9154738 -5.375 24.75 C-4.88 25.20375 -4.385 25.6575 -3.875 26.125 C-2.375 27.75 -2.375 27.75 -2.375 29.75 C-7.26265533 28.39231796 -8.90091098 26.07965579 -11.375 21.75 C-13.16483568 16.38049295 -13.25931724 11.55264667 -10.75 6.4375 C-4.63031915 -0.48740202 -4.63031915 -0.48740202 0 0 Z " fill="#2E465F" transform="translate(217.375,107.25)"/>
<path d="M0 0 C1.09957031 0.33773438 2.19914063 0.67546875 3.33203125 1.0234375 C18.38447788 5.59399772 32.291146 7.41534138 48 8 C48 8.33 48 8.66 48 9 C46.95199219 9.04898437 45.90398437 9.09796875 44.82421875 9.1484375 C43.44528646 9.22348143 42.0663815 9.29902857 40.6875 9.375 C39.65206055 9.42140625 39.65206055 9.42140625 38.59570312 9.46875 C34.93009211 9.68124919 33.12099208 9.91933861 30 12 C27.87890625 12.37890625 27.87890625 12.37890625 25.5625 12.5625 C23.26677319 12.75283945 21.13823347 12.96524857 18.90234375 13.52734375 C17 14 17 14 14 14 C13.35764404 14.18860596 12.71528809 14.37721191 12.0534668 14.5715332 C9.61080842 15.0812069 8.45880886 14.73321819 6.14453125 13.85546875 C5.44005859 13.59056641 4.73558594 13.32566406 4.00976562 13.05273438 C3.28466797 12.76720703 2.55957031 12.48167969 1.8125 12.1875 C0.70745117 11.77661133 0.70745117 11.77661133 -0.41992188 11.35742188 C-5.86589357 9.26821286 -5.86589357 9.26821286 -7 7 C-6.67 6.34 -6.34 5.68 -6 5 C-4.68 5 -3.36 5 -2 5 C-1.34 3.35 -0.68 1.7 0 0 Z " fill="#1D3959" transform="translate(210,374)"/>
<path d="M0 0 C6.06525047 -0.33083184 11.67045864 0.31903811 17.625 1.375 C18.34099365 1.50108643 19.0569873 1.62717285 19.79467773 1.75708008 C24.28963842 2.58710219 28.62410324 3.67919127 33 5 C33 5.66 33 6.32 33 7 C22.26965265 10.06785197 12.15848978 11.70323165 1 12 C0.67 8.04 0.34 4.08 0 0 Z " fill="#2260A3" transform="translate(295,278)"/>
<path d="M0 0 C0.33 0 0.66 0 1 0 C1 2.66666667 1 5.33333333 1 8 C1.99 8 2.98 8 4 8 C3.3855076 11.54758499 2.438873 14.67592936 1.0625 18 C0.55396484 19.2375 0.55396484 19.2375 0.03515625 20.5 C-0.30644531 21.325 -0.64804687 22.15 -1 23 C-1.66866076 24.66586764 -2.33590138 26.33230841 -3 28 C-3.53625 27.608125 -4.0725 27.21625 -4.625 26.8125 C-7.13012836 25.67911562 -7.13012836 25.67911562 -10.125 27.125 C-13.197983 29.12911934 -13.47724783 29.87374366 -15 33 C-16.5859375 34.921875 -16.5859375 34.921875 -18.375 36.75 C-18.96023438 37.36359375 -19.54546875 37.9771875 -20.1484375 38.609375 C-22 40 -22 40 -26 40 C-26 39.34 -26 38.68 -26 38 C-24.50390625 36.5625 -24.50390625 36.5625 -22.5625 35 C-19.84811762 32.85474956 -19.84811762 32.85474956 -18 30 C-17.34 30 -16.68 30 -16 30 C-15.67 29.01 -15.34 28.02 -15 27 C-14.34837891 26.36771484 -14.34837891 26.36771484 -13.68359375 25.72265625 C-11.29126834 23.27482445 -9.73333642 20.39706395 -8.0625 17.4375 C-7.53462891 16.5101001 -7.53462891 16.5101001 -6.99609375 15.56396484 C-4.19360245 10.54672694 -1.90119133 5.42840155 0 0 Z " fill="#10355D" transform="translate(328,304)"/>
<path d="M0 0 C0.66 0 1.32 0 2 0 C3.48988243 2.72344582 4.96493737 5.45465614 6.4375 8.1875 C6.85837891 8.95642578 7.27925781 9.72535156 7.71289062 10.51757812 C9.75012425 14.31498161 11.52009495 17.64595236 12 22 C9 20 9 20 8 17 C6.68 17.33 5.36 17.66 4 18 C4.66 16.68 5.32 15.36 6 14 C5.34 14 4.68 14 4 14 C3.67 16.64 3.34 19.28 3 22 C2.34 22 1.68 22 1 22 C-1.31 17.05 -3.62 12.1 -6 7 C-1.5078125 1.53125 -1.5078125 1.53125 0 0 Z " fill="#233E59" transform="translate(343,215)"/>
<path d="M0 0 C0 0.66 0 1.32 0 2 C-3.96 3.98 -3.96 3.98 -8 6 C-7.67 7.32 -7.34 8.64 -7 10 C-6.34 9.67 -5.68 9.34 -5 9 C-4.01 9.66 -3.02 10.32 -2 11 C-6.75 14 -6.75 14 -9 14 C-9.33 14.66 -9.66 15.32 -10 16 C-9.67 14.35 -9.34 12.7 -9 11 C-11.38564077 11.57584432 -13.66682784 12.22227595 -16 13 C-16.33 13.66 -16.66 14.32 -17 15 C-16.34 15.33 -15.68 15.66 -15 16 C-15 16.99 -15 17.98 -15 19 C-15.94875 19.45375 -16.8975 19.9075 -17.875 20.375 C-21.00313679 21.80238254 -21.00313679 21.80238254 -23 24 C-22.28318774 16.83187739 -20.14083327 11.14083327 -15 6 C-5.65083135 0 -5.65083135 0 0 0 Z " fill="#233D5A" transform="translate(232,234)"/>
<path d="M0 0 C0.33 0 0.66 0 1 0 C1 6.6 1 13.2 1 20 C3.31 20.99 5.62 21.98 8 23 C8 25.64 8 28.28 8 31 C11.3 31.33 14.6 31.66 18 32 C18 32.33 18 32.66 18 33 C16.25034642 33.05429959 14.50020213 33.09292823 12.75 33.125 C11.77546875 33.14820313 10.8009375 33.17140625 9.796875 33.1953125 C5.25999123 32.87849101 3.45039599 31.45039599 0.25 28.25 C-3.93375362 22.08379081 -2.57683942 13.88275945 -1.53515625 6.87109375 C-1.08465868 4.55941644 -0.5883898 2.28001049 0 0 Z " fill="#0E365E" transform="translate(205,278)"/>
<path d="M0 0 C0 0.33 0 0.66 0 1 C-1.04800781 1.04898437 -2.09601563 1.09796875 -3.17578125 1.1484375 C-4.55471354 1.22348143 -5.9336185 1.29902857 -7.3125 1.375 C-8.34793945 1.42140625 -8.34793945 1.42140625 -9.40429688 1.46875 C-13.06990789 1.68124919 -14.87900792 1.91933861 -18 4 C-20.12109375 4.37890625 -20.12109375 4.37890625 -22.4375 4.5625 C-24.75720421 4.75482742 -26.81866857 4.94542787 -29.05078125 5.6171875 C-32.48587741 6.2918156 -34.92729849 4.47726034 -38 3 C-37.67 2.01 -37.34 1.02 -37 0 C-26.17408693 -3.60863769 -11.29758845 -0.63648386 0 0 Z " fill="#274362" transform="translate(258,382)"/>
<path d="M0 0 C0.99 0 1.98 0 3 0 C3 0.99 3 1.98 3 3 C2.34 3 1.68 3 1 3 C1.33 31.71 1.66 60.42 2 90 C2.99 90 3.98 90 5 90 C3.35 91.65 1.7 93.3 0 95 C0 63.65 0 32.3 0 0 Z " fill="#112A47" transform="translate(268,263)"/>
<path d="M0 0 C5.51357127 0 9.4024028 0.88986072 14 4 C13.34 5.65 12.68 7.3 12 9 C10.68 9 9.36 9 8 9 C8 9.66 8 10.32 8 11 C5.23723823 10.47731534 2.6739124 9.89130413 0 9 C0 6.03 0 3.06 0 0 Z " fill="#173352" transform="translate(196,370)"/>
<path d="M0 0 C4.75 0.75 4.75 0.75 7 3 C8.64991582 3.70710678 10.31562256 4.37943989 12 5 C12 6.32 12 7.64 12 9 C11.01 9.66 10.02 10.32 9 11 C8.91201231 13.33167378 8.92094936 15.66800612 9 18 C8.71479595 19.67557379 8.40044304 21.34817245 8 23 C7.67 23 7.34 23 7 23 C6.67 18.71 6.34 14.42 6 10 C5.34 10 4.68 10 4 10 C2.375 8.625 2.375 8.625 1 7 C1 6.34 1 5.68 1 5 C0.01 4.67 -0.98 4.34 -2 4 C-1.34 2.68 -0.68 1.36 0 0 Z " fill="#123153" transform="translate(258,198)"/>
<path d="M0 0 C2.9375 0.4375 2.9375 0.4375 5.9375 2.4375 C6.625 5.0625 6.625 5.0625 6.9375 7.4375 C2.64531893 10.50334362 2.64531893 10.50334362 -0.75 10.1875 C-3.0625 9.4375 -3.0625 9.4375 -5.0625 8.4375 C-5.0625 7.7775 -5.0625 7.1175 -5.0625 6.4375 C-5.7225 6.1075 -6.3825 5.7775 -7.0625 5.4375 C-3.88927165 0.55561024 -3.88927165 0.55561024 0 0 Z " fill="#173352" transform="translate(195.0625,177.5625)"/>
<path d="M0 0 C1.9216523 0.00033989 1.9216523 0.00033989 3.88212585 0.00068665 C5.28055164 0.0160066 6.67897387 0.03165459 8.07739258 0.04760742 C9.50799617 0.05320349 10.93860552 0.05747354 12.36921692 0.06047058 C16.13243515 0.07191861 19.89530538 0.10138502 23.65838623 0.13458252 C27.499179 0.16528454 31.34002806 0.17897617 35.1809082 0.1940918 C42.71557197 0.22625511 50.24994912 0.27745051 57.78442383 0.34057617 C57.78442383 0.67057617 57.78442383 1.00057617 57.78442383 1.34057617 C56.6293055 1.34937553 56.6293055 1.34937553 55.45085144 1.35835266 C48.19650722 1.41623654 40.94250817 1.48828773 33.68847179 1.57629108 C29.95900314 1.62103488 26.22964472 1.66028177 22.5 1.68701172 C18.90121831 1.71300531 15.30285997 1.75337865 11.70433998 1.80376244 C10.33086726 1.82045808 8.95732126 1.83195557 7.58376122 1.83819008 C5.66119193 1.84780092 3.73875506 1.87754282 1.81640625 1.90820312 C0.17426399 1.92485771 0.17426399 1.92485771 -1.50105286 1.94184875 C-4.22274436 2.13439075 -4.22274436 2.13439075 -6.11210632 3.66838074 C-7.54216104 5.45379206 -7.54216104 5.45379206 -6.90307617 8.52807617 C-6.67620117 9.45620117 -6.44932617 10.38432617 -6.21557617 11.34057617 C-8.45755005 9.56568018 -9.15883941 8.71882128 -9.59057617 5.84057617 C-9.21557617 3.34057617 -9.21557617 3.34057617 -8.08061218 1.70561218 C-5.37479391 -0.27479965 -3.32989249 -0.01962609 0 0 Z " fill="#E6EFF7" transform="translate(224.215576171875,116.659423828125)"/>
<path d="M0 0 C1.65 0 3.3 0 5 0 C6.80619523 4.46236469 7.11658501 7.31034294 6 12 C5.01 12.33 4.02 12.66 3 13 C2.67 13.66 2.34 14.32 2 15 C1.87882812 14.36191406 1.75765625 13.72382813 1.6328125 13.06640625 C1.46523438 12.24011719 1.29765625 11.41382813 1.125 10.5625 C0.96257812 9.73878906 0.80015625 8.91507813 0.6328125 8.06640625 C0.42398437 7.38449219 0.21515625 6.70257813 0 6 C-0.66 5.67 -1.32 5.34 -2 5 C-1.34 3.35 -0.68 1.7 0 0 Z " fill="#21D22B" transform="translate(343,182)"/>
<path d="M0 0 C0.185625 0.9590625 0.185625 0.9590625 0.375 1.9375 C0.684375 2.9584375 0.684375 2.9584375 1 4 C1.66 4.33 2.32 4.66 3 5 C3 5.66 3 6.32 3 7 C3.99 7.33 4.98 7.66 6 8 C6 8.66 6 9.32 6 10 C5.01 10.66 4.02 11.32 3 12 C1.98442412 15.3006216 1.8907096 16.67212881 3 20 C0 19 0 19 -1.75 16.5625 C-3.40292089 11.85167547 -3.10778539 7.839273 -2 3 C-1.34 2.01 -0.68 1.02 0 0 Z " fill="#143251" transform="translate(152,315)"/>
<path d="M0 0 C2 2 2 2 2 3.9375 C0.46828594 7.09666025 -1.82843588 7.73137435 -5 9 C-5.99 9 -6.98 9 -8 9 C-8 9.66 -8 10.32 -8 11 C-8.99 11.33 -9.98 11.66 -11 12 C-11 11.34 -11 10.68 -11 10 C-12.65 9.67 -14.3 9.34 -16 9 C-13.34697146 6.34697146 -10.20773563 4.99847122 -6.875 3.375 C-6.21628906 3.05015625 -5.55757813 2.7253125 -4.87890625 2.390625 C-3.25438086 1.59013423 -1.62742022 0.79458899 0 0 Z " fill="#1F3955" transform="translate(304,366)"/>
<path d="M0 0 C4.5524582 0.26779166 6.84569205 2.15365576 9.81640625 5.38671875 C11 7 11 7 11.75 9.5625 C10.60600184 13.28049402 8.05772872 14.73728074 5 17 C4.34 17.66 3.68 18.32 3 19 C2.3125 17.1875 2.3125 17.1875 2 15 C2.495 14.5565625 2.99 14.113125 3.5 13.65625 C5.24096252 12.09267309 5.24096252 12.09267309 5.07421875 9.73828125 C4.94660156 8.93777344 4.81898438 8.13726562 4.6875 7.3125 C4.56761719 6.50425781 4.44773437 5.69601563 4.32421875 4.86328125 C4.21722656 4.24839844 4.11023438 3.63351563 4 3 C2.35 2.67 0.7 2.34 -1 2 C-0.67 1.34 -0.34 0.68 0 0 Z " fill="#35CB43" transform="translate(344,180)"/>
<path d="M0 0 C0 8.25 0 16.5 0 25 C-0.33 25 -0.66 25 -1 25 C-1 18.4 -1 11.8 -1 5 C-1.66 5 -2.32 5 -3 5 C-4.625 3.5 -4.625 3.5 -6 2 C-6 2.66 -6 3.32 -6 4 C-7.65 4.33 -9.3 4.66 -11 5 C-11.66 3.68 -12.32 2.36 -13 1 C-10 0 -10 0 0 0 Z " fill="#162F4B" transform="translate(227,129)"/>
<path d="M0 0 C0.33 0.66 0.66 1.32 1 2 C-2.37493973 7.48427706 -6.38169787 12.50165377 -11 17 C-11.66 17 -12.32 17 -13 17 C-13 17.66 -13 18.32 -13 19 C-13.66 19 -14.32 19 -15 19 C-15.33 19.99 -15.66 20.98 -16 22 C-16.99 21.67 -17.98 21.34 -19 21 C-18.01 19.515 -18.01 19.515 -17 18 C-16.34 18 -15.68 18 -15 18 C-14.67515625 17.18208984 -14.67515625 17.18208984 -14.34375 16.34765625 C-12.54862264 13.21140176 -10.0867754 10.91398652 -7.5 8.4375 C-4.71628244 5.75088887 -2.16106778 3.24160167 0 0 Z " fill="#D6FAD6" transform="translate(334,212)"/>
<path d="M0 0 C1.19298271 3.96516557 0.73961634 6.18941183 -1 10 C-1.62003906 10.30421875 -2.24007813 10.6084375 -2.87890625 10.921875 C-5.48545655 12.2467514 -6.56767095 13.75444544 -8.25 16.125 C-8.77078125 16.84945313 -9.2915625 17.57390625 -9.828125 18.3203125 C-10.21484375 18.87460937 -10.6015625 19.42890625 -11 20 C-11.33 19.34 -11.66 18.68 -12 18 C-12.66 17.67 -13.32 17.34 -14 17 C-13.36384766 16.41605469 -13.36384766 16.41605469 -12.71484375 15.8203125 C-7.69468738 11.03185565 -3.82251545 5.77443824 0 0 Z " fill="#253A59" transform="translate(334,336)"/>
<path d="M0 0 C-0.33 2.97 -0.66 5.94 -1 9 C-1.33 9 -1.66 9 -2 9 C-2 7.02 -2 5.04 -2 3 C-3.9587043 3.14076315 -5.91696093 3.2877676 -7.875 3.4375 C-8.96554687 3.51871094 -10.05609375 3.59992188 -11.1796875 3.68359375 C-13.94728971 3.83001703 -13.94728971 3.83001703 -16 5 C-18.88370333 5.07194869 -21.74239664 5.09291708 -24.625 5.0625 C-25.42679687 5.05798828 -26.22859375 5.05347656 -27.0546875 5.04882812 C-29.03649006 5.03703168 -31.01825433 5.01909605 -33 5 C-33 4.67 -33 4.34 -33 4 C-31.22496094 3.81824219 -31.22496094 3.81824219 -29.4140625 3.6328125 C-18.15444628 2.47790027 -18.15444628 2.47790027 -7.04296875 0.3671875 C-4.66563237 -0.06009667 -2.41033479 -0.05889125 0 0 Z " fill="#21548E" transform="translate(330,295)"/>
<path d="M0 0 C0.33 0 0.66 0 1 0 C1.16435547 0.92619141 1.16435547 0.92619141 1.33203125 1.87109375 C2.32498527 7.17492134 3.60825052 12.13564118 5.51171875 17.1875 C6 19 6 19 5 21 C4.01 21.33 3.02 21.66 2 22 C2 19.36 2 16.72 2 14 C0.35 13.67 -1.3 13.34 -3 13 C-3.33 12.01 -3.66 11.02 -4 10 C-3.525625 9.649375 -3.05125 9.29875 -2.5625 8.9375 C-0.32126175 6.15836457 -0.32882342 3.4855283 0 0 Z " fill="#123864" transform="translate(168,290)"/>
<path d="M0 0 C0.66 0.99 1.32 1.98 2 3 C2.33 2.01 2.66 1.02 3 0 C3.33 0.99 3.66 1.98 4 3 C6.01508358 3.73323796 6.01508358 3.73323796 8 4 C7.67 5.98 7.34 7.96 7 10 C5.68 10.33 4.36 10.66 3 11 C2.566875 10.236875 2.13375 9.47375 1.6875 8.6875 C0.26313215 6.41906232 -1.03260097 4.7800277 -3 3 C-2.01 2.01 -1.02 1.02 0 0 Z " fill="#143454" transform="translate(340,219)"/>
<path d="M0 0 C0.33 1.32 0.66 2.64 1 4 C0.01 4 -0.98 4 -2 4 C-2.10634766 4.82757813 -2.10634766 4.82757813 -2.21484375 5.671875 C-3.30595058 8.90719675 -5.24232008 10.76642713 -7.5625 13.25 C-8.38878906 14.14203125 -9.21507812 15.0340625 -10.06640625 15.953125 C-10.70449219 16.62859375 -11.34257812 17.3040625 -12 18 C-13.32 17.67 -14.64 17.34 -16 17 C-15.18015625 16.19175781 -14.3603125 15.38351563 -13.515625 14.55078125 C-12.42694863 13.47149002 -11.3384145 12.39205531 -10.25 11.3125 C-9.71117187 10.78205078 -9.17234375 10.25160156 -8.6171875 9.70507812 C-5.51387173 6.62068501 -2.66327598 3.48423727 0 0 Z " fill="#D5F9D5" transform="translate(351,194)"/>
<path d="M0 0 C2.97 0 5.94 0 9 0 C9 0.33 9 0.66 9 1 C6.69 1 4.38 1 2 1 C2.33 3.64 2.66 6.28 3 9 C9.27 9 15.54 9 22 9 C22 9.33 22 9.66 22 10 C14.94546999 11.20443195 8.16562789 12.28100502 1 12 C0.67 8.04 0.34 4.08 0 0 Z " fill="#235994" transform="translate(295,278)"/>
<path d="M0 0 C0.33 0 0.66 0 1 0 C0.84694977 8.87691323 -2.84684234 15.37684116 -7 23 C-8.28163247 19.15510259 -7.3963093 17.74798811 -6 14 C-5.690625 12.906875 -5.38125 11.81375 -5.0625 10.6875 C-4.711875 9.800625 -4.36125 8.91375 -4 8 C-3.01 7.67 -2.02 7.34 -1 7 C-0.67 4.69 -0.34 2.38 0 0 Z " fill="#255C98" transform="translate(327,300)"/>
<path d="M0 0 C0.33 0 0.66 0 1 0 C1.59054513 7.97235926 -0.56896812 14.35345218 -5 21 C-5.66 21 -6.32 21 -7 21 C-4.66666667 14 -2.33333333 7 0 0 Z " fill="#2C435C" transform="translate(348,305)"/>
<path d="M0 0 C0.66 0 1.32 0 2 0 C1.52634425 4.26290179 -0.92238322 6.21548958 -4 9 C-7.08888522 11.05925681 -7.70935927 11.2390374 -11.1875 11.125 C-13.0746875 11.063125 -13.0746875 11.063125 -15 11 C-11.71546836 8.81031224 -8.82587472 8.0034404 -5.05859375 6.9765625 C-2.46471464 5.74606956 -2.01966352 4.62778956 -1 2 C-0.67 1.34 -0.34 0.68 0 0 Z " fill="#0C3463" transform="translate(295,300)"/>
<path d="M0 0 C0.33 0 0.66 0 1 0 C1.36463732 1.74784829 1.7163078 3.49840502 2.0625 5.25 C2.25972656 6.22453125 2.45695313 7.1990625 2.66015625 8.203125 C2.98397535 10.868119 2.85503199 12.48871723 2 15 C0.68 14.67 -0.64 14.34 -2 14 C-1.85866501 12.22880197 -1.71176792 10.45804713 -1.5625 8.6875 C-1.48128906 7.70136719 -1.40007812 6.71523438 -1.31640625 5.69921875 C-1 3 -1 3 0 0 Z " fill="#263E5B" transform="translate(148,290)"/>
<path d="M0 0 C0.66 0.99 1.32 1.98 2 3 C1.01 3.495 1.01 3.495 0 4 C-1.04808041 5.97522846 -2.0520411 7.97481509 -3 10 C-3.66 10 -4.32 10 -5 10 C-5.309375 10.94875 -5.61875 11.8975 -5.9375 12.875 C-7 16 -7 16 -8 18 C-8.99 17.67 -9.98 17.34 -11 17 C-7.56704016 11.13683491 -4.03949132 5.46519414 0 0 Z " fill="#2C4258" transform="translate(162,205)"/>
<path d="M0 0 C3.875 0.875 3.875 0.875 5 2 C5.12494616 3.62139437 5.17571624 5.24884122 5.1875 6.875 C5.20167969 7.75929688 5.21585937 8.64359375 5.23046875 9.5546875 C5 12 5 12 3 15 C1.68272247 9.9943454 0.64187918 5.13503344 0 0 Z " fill="#283E56" transform="translate(337,278)"/>
<path d="M0 0 C0.33 0.66 0.66 1.32 1 2 C-1 5 -1 5 -3.6015625 5.73046875 C-5.09816406 5.95669922 -5.09816406 5.95669922 -6.625 6.1875 C-7.62789063 6.34605469 -8.63078125 6.50460937 -9.6640625 6.66796875 C-10.82035156 6.83232422 -10.82035156 6.83232422 -12 7 C-12.66 8.98 -13.32 10.96 -14 13 C-14.33 13 -14.66 13 -15 13 C-15 10.36 -15 7.72 -15 5 C-14.33613281 4.89042969 -13.67226563 4.78085937 -12.98828125 4.66796875 C-8.09120522 3.78863977 -4.09838572 3.00548286 0 0 Z " fill="#265C9A" transform="translate(293,307)"/>
<path d="M0 0 C0.33 0 0.66 0 1 0 C1 1.65 1 3.3 1 5 C0.34 5 -0.32 5 -1 5 C-1 5.66 -1 6.32 -1 7 C-1.66 7 -2.32 7 -3 7 C-3.66 8.32 -4.32 9.64 -5 11 C-6.32 10.67 -7.64 10.34 -9 10 C-7.52417192 8.33037631 -6.04425109 6.6643694 -4.5625 5 C-3.73878906 4.071875 -2.91507813 3.14375 -2.06640625 2.1875 C-1.04353516 1.1046875 -1.04353516 1.1046875 0 0 Z " fill="#293F5E" transform="translate(172,194)"/>
<path d="M0 0 C2.1640625 -0.29296875 2.1640625 -0.29296875 4.625 -0.1875 C5.44226563 -0.16042969 6.25953125 -0.13335937 7.1015625 -0.10546875 C8.04128906 -0.05326172 8.04128906 -0.05326172 9 0 C8.67 2.31 8.34 4.62 8 7 C7.46375 6.525625 6.9275 6.05125 6.375 5.5625 C3.57157164 3.71813924 1.30379742 3.37543153 -2 3 C-1.34 2.01 -0.68 1.02 0 0 Z M5 2 C5.33 2.66 5.66 3.32 6 4 C6.33 3.34 6.66 2.68 7 2 C6.34 2 5.68 2 5 2 Z " fill="#113354" transform="translate(277,244)"/>
<path d="M0 0 C0 1.98 0 3.96 0 6 C-2 6.66666667 -4 7.33333333 -6 8 C-6.33 6.02 -6.66 4.04 -7 2 C-2.25 0 -2.25 0 0 0 Z " fill="#12304F" transform="translate(169,342)"/>
<path d="M0 0 C0.99 0.33 1.98 0.66 3 1 C2.34 1 1.68 1 1 1 C1 1.66 1 2.32 1 3 C-0.78398614 4.28006797 -2.62853906 5.47660351 -4.5 6.625 C-6.03140625 7.57246094 -6.03140625 7.57246094 -7.59375 8.5390625 C-8.3878125 9.02117187 -9.181875 9.50328125 -10 10 C-10.33 9.01 -10.66 8.02 -11 7 C-9.23754778 5.8000962 -7.46473019 4.61540483 -5.6875 3.4375 C-4.70136719 2.77621094 -3.71523438 2.11492187 -2.69921875 1.43359375 C-1.80847656 0.96050781 -0.91773438 0.48742187 0 0 Z " fill="#245A96" transform="translate(301,341)"/>
<path d="M0 0 C0.5775 0.763125 1.155 1.52625 1.75 2.3125 C4.52315586 5.62488061 7.42704258 7.61802839 11 10 C4.375 9.25 4.375 9.25 1 7 C1.33 6.34 1.66 5.68 2 5 C0.35 5.66 -1.3 6.32 -3 7 C-2.67 5.35 -2.34 3.7 -2 2 C-1.34 2 -0.68 2 0 2 C0 1.34 0 0.68 0 0 Z " fill="#213851" transform="translate(236,222)"/>
<path d="M0 0 C1 4 1 4 1 6 C-5.625 10 -5.625 10 -9 10 C-6.03 6.7 -3.06 3.4 0 0 Z " fill="#4CCC54" transform="translate(319,206)"/>
<path d="M0 0 C0.99 0.99 1.98 1.98 3 3 C1.92598892 5.91517292 1.22189824 7.77810176 -1 10 C-1.99 8.68 -2.98 7.36 -4 6 C-3.01 5.67 -2.02 5.34 -1 5 C-0.67 3.35 -0.34 1.7 0 0 Z " fill="#213E61" transform="translate(162,331)"/>
<path d="M0 0 C0 0.33 0 0.66 0 1 C-4.455 1.495 -4.455 1.495 -9 2 C-9.33 2.99 -9.66 3.98 -10 5 C-10.99 5 -11.98 5 -13 5 C-15.18777466 6.9375006 -15.18777466 6.9375006 -17 9 C-16.06026802 5.61696486 -15.0726148 4.06553043 -12.4375 1.6875 C-8.09935347 -0.44213557 -4.73624704 -0.37889976 0 0 Z " fill="#D4DEE8" transform="translate(254,203)"/>
<path d="M0 0 C2.8203125 -0.29296875 2.8203125 -0.29296875 6.125 -0.1875 C7.76855469 -0.14689453 7.76855469 -0.14689453 9.4453125 -0.10546875 C10.28835937 -0.07066406 11.13140625 -0.03585938 12 0 C12.33 1.32 12.66 2.64 13 4 C12.34 3.67 11.68 3.34 11 3 C8.7927077 2.92907158 6.58332548 2.91584975 4.375 2.9375 C2.59222656 2.95103516 2.59222656 2.95103516 0.7734375 2.96484375 C-0.59941406 2.98224609 -0.59941406 2.98224609 -2 3 C-1.34 2.01 -0.68 1.02 0 0 Z " fill="#2C4158" transform="translate(244,193)"/>
<path d="M0 0 C2 2 2 2 2 4 C1 6 1 6 -2.0625 7.25 C-3.031875 7.4975 -4.00125 7.745 -5 8 C-4.67 6.68 -4.34 5.36 -4 4 C-4.66 3.67 -5.32 3.34 -6 3 C-4.02 2.01 -2.04 1.02 0 0 Z " fill="#253F5D" transform="translate(304,366)"/>
<path d="M0 0 C3.26008643 3.16952847 6.22237877 6.39937989 9 10 C8.01 10.33 7.02 10.66 6 11 C3 7.25 3 7.25 3 5 C2.01 5 1.02 5 0 5 C0 3.35 0 1.7 0 0 Z " fill="#273C58" transform="translate(169,342)"/>
<path d="M0 0 C0 1.98 0 3.96 0 6 C-0.66 6 -1.32 6 -2 6 C-2 6.99 -2 7.98 -2 9 C-2.99 8.67 -3.98 8.34 -5 8 C-5 6.02 -5 4.04 -5 2 C-1.125 0 -1.125 0 0 0 Z " fill="#133053" transform="translate(316,185)"/>
<path d="M0 0 C1.625 2 1.625 2 3 4 C1.4375 5.1875 1.4375 5.1875 -1 6 C-4.75 4.625 -4.75 4.625 -8 3 C-2 0 -2 0 0 0 Z " fill="#223D5D" transform="translate(288,375)"/>
<path d="M0 0 C2.375 0.25 2.375 0.25 5 1 C5.66666667 2.33333333 6.33333333 3.66666667 7 5 C7.825 5.165 8.65 5.33 9.5 5.5 C10.7375 5.7475 10.7375 5.7475 12 6 C13.3125 8.0625 13.3125 8.0625 14 10 C10.19136032 8.65378455 7.34590149 6.94641263 4.1875 4.4375 C3.39730469 3.81746094 2.60710937 3.19742187 1.79296875 2.55859375 C0.90544922 1.78708984 0.90544922 1.78708984 0 1 C0 0.67 0 0.34 0 0 Z " fill="#225690" transform="translate(197,342)"/>
<path d="M0 0 C-0.7115625 0.6496875 -0.7115625 0.6496875 -1.4375 1.3125 C-3.23686957 3.02309613 -3.23686957 3.02309613 -4 6 C-5.32 6 -6.64 6 -8 6 C-7.49396008 3.83125748 -7.00016187 2.00032373 -6 0 C-3 -1 -3 -1 0 0 Z " fill="#1ECE2E" transform="translate(332,200)"/>
<path d="M0 0 C-0.33 0.99 -0.66 1.98 -1 3 C-1.99 3.33 -2.98 3.66 -4 4 C-5.38576923 5.62332967 -6.72641268 7.28724465 -8 9 C-8.99 8.67 -9.98 8.34 -11 8 C-3.21621622 0 -3.21621622 0 0 0 Z " fill="#2F4459" transform="translate(241,195)"/>
<path d="M0 0 C0.33 0 0.66 0 1 0 C1 7.59 1 15.18 1 23 C0.34 23.33 -0.32 23.66 -1 24 C-1.33 23.01 -1.66 22.02 -2 21 C-1.67 20.67 -1.34 20.34 -1 20 C-0.84344973 18.51361008 -0.74933057 17.02050873 -0.68359375 15.52734375 C-0.64169922 14.62822266 -0.59980469 13.72910156 -0.55664062 12.80273438 C-0.51732422 11.85720703 -0.47800781 10.91167969 -0.4375 9.9375 C-0.37272461 8.5134082 -0.37272461 8.5134082 -0.30664062 7.06054688 C-0.20020724 4.70718647 -0.09818992 2.35371646 0 0 Z " fill="#EAF4F8" transform="translate(266,335)"/>
<path d="M0 0 C0 0.33 0 0.66 0 1 C-1.03640625 1.20496094 -2.0728125 1.40992188 -3.140625 1.62109375 C-4.51042689 1.89317769 -5.88021799 2.16531596 -7.25 2.4375 C-8.27287109 2.63956055 -8.27287109 2.63956055 -9.31640625 2.84570312 C-12.56469458 3.49220711 -15.79815978 4.15002695 -19 5 C-18.67 4.01 -18.34 3.02 -18 2 C-11.93184478 0.77100654 -6.20104812 -0.27560214 0 0 Z " fill="#0D3767" transform="translate(189,279)"/>
<path d="M0 0 C1.32 0.33 2.64 0.66 4 1 C4.8125 3.6875 4.8125 3.6875 5 7 C2.6875 9.75 2.6875 9.75 0 12 C-0.66 12.66 -1.32 13.32 -2 14 C-2.66 13.67 -3.32 13.34 -4 13 C-4 12.34 -4 11.68 -4 11 C-2.04072937 9.2856382 -0.04119788 7.61594832 2 6 C1.49396008 3.83125748 1.00016187 2.00032373 0 0 Z " fill="#E4EAEF" transform="translate(319,186)"/>
<path d="M0 0 C3.0390625 -0.29296875 3.0390625 -0.29296875 6.625 -0.1875 C7.81351562 -0.16042969 9.00203125 -0.13335937 10.2265625 -0.10546875 C11.14179688 -0.07066406 12.05703125 -0.03585937 13 0 C13 0.33 13 0.66 13 1 C11.43883181 1.33951619 9.87598662 1.67132544 8.3125 2 C7.00732422 2.2784375 7.00732422 2.2784375 5.67578125 2.5625 C3.06287036 2.98972047 0.64186962 3.07616201 -2 3 C-1.34 2.01 -0.68 1.02 0 0 Z " fill="#0D3765" transform="translate(312,295)"/>
<path d="M0 0 C1.58294782 -0.05437607 3.16644256 -0.09296271 4.75 -0.125 C5.63171875 -0.14820313 6.5134375 -0.17140625 7.421875 -0.1953125 C10.1135858 0.00860498 11.69904974 0.63448279 14 2 C14 3.32 14 4.64 14 6 C12.35 6 10.7 6 9 6 C10.32 5.67 11.64 5.34 13 5 C13 4.34 13 3.68 13 3 C11.96875 2.855625 10.9375 2.71125 9.875 2.5625 C6.57450187 2.08339543 3.28731659 1.56124917 0 1 C0 0.67 0 0.34 0 0 Z " fill="#123F6E" transform="translate(315,280)"/>
<path d="M0 0 C0.33 0 0.66 0 1 0 C1.39063507 1.43333021 1.76198474 2.87192679 2.125 4.3125 C2.33382812 5.11300781 2.54265625 5.91351563 2.7578125 6.73828125 C3 9 3 9 1 12 C-1.32488647 8.36736489 -1.23961213 5.23314767 -1 1 C-0.67 0.67 -0.34 0.34 0 0 Z " fill="#213D58" transform="translate(139,263)"/>
<path d="M0 0 C0.33 0 0.66 0 1 0 C1.19620767 2.06168985 1.38160753 4.12440998 1.5625 6.1875 C1.66691406 7.33605469 1.77132812 8.48460937 1.87890625 9.66796875 C1.98859985 12.68631199 1.74002389 15.08923936 1 18 C0.34 18 -0.32 18 -1 18 C-0.505 9.09 -0.505 9.09 0 0 Z " fill="#44576D" transform="translate(244,330)"/>
<path d="M0 0 C2.41346327 4.1373656 4.5081809 9.45467653 3.55078125 14.25 C3.36902344 14.8275 3.18726563 15.405 3 16 C3 15.34 3 14.68 3 14 C2.34 14 1.68 14 1 14 C0.04738513 9.23692563 -0.08333357 4.8333472 0 0 Z " fill="#CBD6E0" transform="translate(139,297)"/>
<path d="M0 0 C1.17175781 0.12761719 2.34351563 0.25523437 3.55078125 0.38671875 C4.73027344 0.50660156 5.90976563 0.62648438 7.125 0.75 C8.48044922 0.91048828 8.48044922 0.91048828 9.86328125 1.07421875 C9.86328125 1.40421875 9.86328125 1.73421875 9.86328125 2.07421875 C1.94328125 2.56921875 1.94328125 2.56921875 -6.13671875 3.07421875 C-3.13671875 0.07421875 -3.13671875 0.07421875 0 0 Z " fill="#113B6B" transform="translate(195.13671875,275.92578125)"/>
<path d="M0 0 C-1.65 1.98 -3.3 3.96 -5 6 C-7 3 -7 3 -7 0 C-4.3333581 -1.33332095 -2.83319697 -0.67102033 0 0 Z " fill="#31CE43" transform="translate(329,218)"/>
<path d="M0 0 C0.66 0 1.32 0 2 0 C0.76075855 4.95696581 -0.78577758 7.11658466 -5 10 C-4.300926 6.22500037 -2.74803773 2.74803773 0 0 Z " fill="#245892" transform="translate(316,324)"/>
<path d="M0 0 C3.5399721 5.30995815 3.12943116 11.78730425 3 18 C2.67 18 2.34 18 2 18 C0.59545452 11.88019467 -0.23268915 6.28260706 0 0 Z " fill="#253A51" transform="translate(139,289)"/>
<path d="M0 0 C2.96052484 3.36423277 3.92289822 6.69159287 5 11 C2 9 2 9 1 6 C-0.32 6.33 -1.64 6.66 -3 7 C-2.01 4.69 -1.02 2.38 0 0 Z " fill="#304860" transform="translate(350,226)"/>
<path d="M0 0 C0.33 1.32 0.66 2.64 1 4 C-1.98671756 6.57189568 -4.13857796 8.21616433 -8 9 C-7.04270084 7.87411986 -6.08412105 6.7493285 -5.125 5.625 C-4.59132813 4.99851562 -4.05765625 4.37203125 -3.5078125 3.7265625 C-2.38567993 2.44163349 -1.20628025 1.20628025 0 0 Z " fill="#D3DFE3" transform="translate(331,356)"/>
<path d="M0 0 C0.33 0 0.66 0 1 0 C1 1.65 1 3.3 1 5 C1.66 5 2.32 5 3 5 C3 5.66 3 6.32 3 7 C-0.78187881 8.83691257 -2.94568308 9.15837626 -7 8 C-7 7.67 -7 7.34 -7 7 C-5.02 6.34 -3.04 5.68 -1 5 C-0.67 3.35 -0.34 1.7 0 0 Z " fill="#3F546C" transform="translate(242,352)"/>
<path d="M0 0 C0.99 0 1.98 0 3 0 C3 1.98 3 3.96 3 6 C1.68 6.33 0.36 6.66 -1 7 C-1.04254356 5.00045254 -1.04080783 2.99958364 -1 1 C-0.67 0.67 -0.34 0.34 0 0 Z " fill="#2C4359" transform="translate(229,263)"/>
<path d="M0 0 C1.67542976 0.28604898 3.34385343 0.61781233 5 1 C5 1.66 5 2.32 5 3 C5.99 3 6.98 3 8 3 C8.33 4.65 8.66 6.3 9 8 C8.0925 7.21625 7.185 6.4325 6.25 5.625 C3.94809764 3.69947504 1.78422793 2.17794259 -1 1 C-0.67 0.67 -0.34 0.34 0 0 Z " fill="#E0FEE2" transform="translate(292,203)"/>
<path d="M0 0 C2.97 0.495 2.97 0.495 6 1 C3.38485683 3.12038635 0.80362384 5.13091744 -2 7 C-1.125 2.25 -1.125 2.25 0 0 Z " fill="#273F5B" transform="translate(190,187)"/>
<path d="M0 0 C0.33 0 0.66 0 1 0 C1.21192221 5.19209404 0.5912689 9.126739 -1 14 C-1.33 14 -1.66 14 -2 14 C-2 11.03 -2 8.06 -2 5 C-1.34 5 -0.68 5 0 5 C0 3.35 0 1.7 0 0 Z " fill="#152E4C" transform="translate(245,343)"/>
<path d="M0 0 C0.66 0.99 1.32 1.98 2 3 C0.02 5.97 -1.96 8.94 -4 12 C-4.66 11.67 -5.32 11.34 -6 11 C-4.02 7.37 -2.04 3.74 0 0 Z " fill="#D3DDE4" transform="translate(350,328)"/>
<path d="M0 0 C3.00825564 1.50412782 3.30662971 3.86048301 4.40234375 6.921875 C5.10104707 9.35135321 5.23571669 11.48568864 5 14 C1.34133706 9.67612562 0 5.65076098 0 0 Z " fill="#255C98" transform="translate(172,302)"/>
<path d="M0 0 C0.33 0 0.66 0 1 0 C1.08078641 2.12438339 1.13909141 4.2496323 1.1875 6.375 C1.22230469 7.55835938 1.25710938 8.74171875 1.29296875 9.9609375 C1.19628906 10.96382813 1.09960938 11.96671875 1 13 C0.01 13.66 -0.98 14.32 -2 15 C-1.855625 14.01 -1.71125 13.02 -1.5625 12 C-0.99074821 8.00590535 -0.49180166 4.00467063 0 0 Z " fill="#CBD7E0" transform="translate(361,290)"/>
<path d="M0 0 C2.70931419 0.15481795 4.46584039 0.48172081 6.4453125 2.40234375 C7.67679642 3.89771708 8.8429837 5.4462924 10 7 C8.35 6.67 6.7 6.34 5 6 C4.67 5.01 4.34 4.02 4 3 C2.35 2.67 0.7 2.34 -1 2 C-0.67 1.34 -0.34 0.68 0 0 Z " fill="#58CD60" transform="translate(344,180)"/>
<path d="M0 0 C0.66 0 1.32 0 2 0 C3.20272819 2.40545638 3.10071472 3.94996953 3.0625 6.625 C3.05347656 7.44226563 3.04445313 8.25953125 3.03515625 9.1015625 C3.02355469 9.72804688 3.01195312 10.35453125 3 11 C2.34 11 1.68 11 1 11 C0.67 7.37 0.34 3.74 0 0 Z " fill="#283D53" transform="translate(292,117)"/>
<path d="M0 0 C1.2065625 0.0309375 1.2065625 0.0309375 2.4375 0.0625 C2.4375 0.7225 2.4375 1.3825 2.4375 2.0625 C3.7575 2.0625 5.0775 2.0625 6.4375 2.0625 C6.4375 2.7225 6.4375 3.3825 6.4375 4.0625 C1.02211538 4.43173077 1.02211538 4.43173077 -1.9375 2.5625 C-2.47375 2.0675 -3.01 1.5725 -3.5625 1.0625 C-2.5625 0.0625 -2.5625 0.0625 0 0 Z " fill="#17334D" transform="translate(224.5625,385.9375)"/>
<path d="M0 0 C0.33 0.66 0.66 1.32 1 2 C2.98 1.67 4.96 1.34 7 1 C1.85714286 5.42857143 1.85714286 5.42857143 -2 6 C-1.34 4.02 -0.68 2.04 0 0 Z " fill="#2C455C" transform="translate(291,357)"/>
<path d="M0 0 C1.65 0.33 3.3 0.66 5 1 C5 1.99 5 2.98 5 4 C3.02 4 1.04 4 -1 4 C-0.67 2.68 -0.34 1.36 0 0 Z " fill="#1ECF2D" transform="translate(306,232)"/>
<path d="M0 0 C0.33 0.66 0.66 1.32 1 2 C0.22265625 3.9453125 0.22265625 3.9453125 -0.9375 6.125 C-1.31777344 6.84945312 -1.69804687 7.57390625 -2.08984375 8.3203125 C-2.39019531 8.87460938 -2.69054687 9.42890625 -3 10 C-3.66 9.34 -4.32 8.68 -5 8 C-5 7.01 -5 6.02 -5 5 C-4.01 5 -3.02 5 -2 5 C-2 3.68 -2 2.36 -2 1 C-1.34 0.67 -0.68 0.34 0 0 Z " fill="#2D425C" transform="translate(273,222)"/>
<path d="M0 0 C2.97 1.65 5.94 3.3 9 5 C9 5.33 9 5.66 9 6 C7.02 6 5.04 6 3 6 C3 5.01 3 4.02 3 3 C2.01 3 1.02 3 0 3 C0 2.01 0 1.02 0 0 Z " fill="#253D58" transform="translate(189,362)"/>
<path d="M0 0 C0.33 1.32 0.66 2.64 1 4 C1.66 4 2.32 4 3 4 C4.0625 6.375 4.0625 6.375 5 9 C4.67 9.66 4.34 10.32 4 11 C3.34 11 2.68 11 2 11 C0.57741188 7.17679443 -0.24042276 4.08718695 0 0 Z " fill="#18304A" transform="translate(142,304)"/>
<path d="M0 0 C1.32 0.33 2.64 0.66 4 1 C3.67 1.33 3.34 1.66 3 2 C2.76712992 3.68183948 2.58735834 5.3712416 2.4375 7.0625 C2.31181641 8.44115234 2.31181641 8.44115234 2.18359375 9.84765625 C2.12300781 10.55792969 2.06242188 11.26820313 2 12 C1.67 12 1.34 12 1 12 C0.67 8.04 0.34 4.08 0 0 Z " fill="#25558F" transform="translate(168,284)"/>
<path d="M0 0 C0.33 0.66 0.66 1.32 1 2 C-1.64 3.98 -4.28 5.96 -7 8 C-7 6.68 -7 5.36 -7 4 C-6.01 4 -5.02 4 -4 4 C-4 3.01 -4 2.02 -4 1 C-2.68 0.67 -1.36 0.34 0 0 Z " fill="#CFF6CE" transform="translate(328,196)"/>
<path d="M0 0 C0.99 0.33 1.98 0.66 3 1 C3 2.65 3 4.3 3 6 C1.02 5.34 -0.96 4.68 -3 4 C-2.01 2.68 -1.02 1.36 0 0 Z " fill="#233F5C" transform="translate(176,190)"/>
<path d="M0 0 C0.33 0.99 0.66 1.98 1 3 C-0.4375 5.1875 -0.4375 5.1875 -2 7 C-3.32 6.67 -4.64 6.34 -6 6 C-4.02 4.02 -2.04 2.04 0 0 Z " fill="#40CE4D" transform="translate(342,182)"/>
<path d="M0 0 C3.625 0.375 3.625 0.375 7 1 C7 2.32 7 3.64 7 5 C4.03 4.01 1.06 3.02 -2 2 C-1.34 1.34 -0.68 0.68 0 0 Z " fill="#29415C" transform="translate(289,178)"/>
<path d="M0 0 C0.66 0 1.32 0 2 0 C1.4409112 3.24271506 0.5867822 4.93057424 -2 7 C-2.66 7 -3.32 7 -4 7 C-4 6.01 -4 5.02 -4 4 C-3.34 4 -2.68 4 -2 4 C-1.34 2.68 -0.68 1.36 0 0 Z " fill="#273E54" transform="translate(291,129)"/>
<path d="M0 0 C6.75 1.625 6.75 1.625 9 5 C2.375 4.25 2.375 4.25 -1 2 C-0.67 1.34 -0.34 0.68 0 0 Z " fill="#2F445C" transform="translate(215,384)"/>
<path d="M0 0 C0.99 0.33 1.98 0.66 3 1 C3 5.62 3 10.24 3 15 C2.67 15 2.34 15 2 15 C1.34 10.05 0.68 5.1 0 0 Z " fill="#DFEBF2" transform="translate(290,252)"/>
<path d="M0 0 C1.32 0.66 2.64 1.32 4 2 C4 2.99 4 3.98 4 5 C3.34 5 2.68 5 2 5 C1.67 5.66 1.34 6.32 1 7 C0.34 5.02 -0.32 3.04 -1 1 C-0.67 0.67 -0.34 0.34 0 0 Z " fill="#1C3A56" transform="translate(352,235)"/>
<path d="M0 0 C2.97 0.33 5.94 0.66 9 1 C8.01 2.485 8.01 2.485 7 4 C4.625 3.6875 4.625 3.6875 2 3 C1.34 2.01 0.68 1.02 0 0 Z " fill="#47C655" transform="translate(303,235)"/>
<path d="M0 0 C1.11074104 3.33222313 0.88927847 5.62074182 0 9 C-0.33 9.66 -0.66 10.32 -1 11 C-1.66 11 -2.32 11 -3 11 C-2.69078116 9.54096742 -2.37751201 8.08279278 -2.0625 6.625 C-1.88847656 5.81289062 -1.71445313 5.00078125 -1.53515625 4.1640625 C-1 2 -1 2 0 0 Z " fill="#2C455F" transform="translate(147,230)"/>
<path d="M0 0 C2.475 0.495 2.475 0.495 5 1 C5 1.66 5 2.32 5 3 C5.99 3 6.98 3 8 3 C8 3.99 8 4.98 8 6 C4.63408134 4.55746343 2.48952921 2.66735273 0 0 Z " fill="#2A3D56" transform="translate(178,365)"/>
<path d="M0 0 C0.66 0 1.32 0 2 0 C0.6302836 3.99500618 -1.25722422 6.80009492 -4 10 C-3.43697042 6.05879291 -2.3208055 3.2491277 0 0 Z " fill="#2A4058" transform="translate(329,322)"/>
<path d="M0 0 C0.66 0 1.32 0 2 0 C1.45773019 3.79588866 -0.20127563 5.47211993 -3 8 C-2.45276317 4.62537285 -1.9451 2.91765 0 0 Z " fill="#0E3A6D" transform="translate(295,300)"/>
<path d="M0 0 C0.33 0 0.66 0 1 0 C1 2.64 1 5.28 1 8 C0.34 8 -0.32 8 -1 8 C-1.33 8.66 -1.66 9.32 -2 10 C-1.125 2.25 -1.125 2.25 0 0 Z " fill="#122D4C" transform="translate(213,278)"/>
<path d="M0 0 C0.99 0.495 0.99 0.495 2 1 C1.01 1.495 1.01 1.495 0 2 C0 1.34 0 0.68 0 0 Z M-7 1 C-5.02 1 -3.04 1 -1 1 C-1 1.99 -1 2.98 -1 4 C-1.99 4.33 -2.98 4.66 -4 5 C-4.99 3.68 -5.98 2.36 -7 1 Z " fill="#26425F" transform="translate(282,246)"/>
<path d="M0 0 C1.15941038 3.47823115 0.70820884 5.45895578 0 9 C-0.99 8.34 -1.98 7.68 -3 7 C-2.25 2.25 -2.25 2.25 0 0 Z " fill="#52C866" transform="translate(286,209)"/>
<path d="M0 0 C-0.375 2.9375 -0.375 2.9375 -1 6 C-1.99 6.495 -1.99 6.495 -3 7 C-3.66 5.35 -4.32 3.7 -5 2 C-2 0 -2 0 0 0 Z " fill="#113050" transform="translate(222,358)"/>
<path d="M0 0 C-3.20336822 2.83374881 -5.78087253 3.5205537 -10 4 C-10 3.34 -10 2.68 -10 2 C-6.49223216 0.39644899 -3.85645121 -0.22036864 0 0 Z " fill="#275C98" transform="translate(288,352)"/>
<path d="M0 0 C1.98 1.65 3.96 3.3 6 5 C5.01 5.495 5.01 5.495 4 6 C1.375 5.0625 1.375 5.0625 -1 4 C-0.67 2.68 -0.34 1.36 0 0 Z " fill="#D8E4EB" transform="translate(270,230)"/>
<path d="M0 0 C2.31 1.98 4.62 3.96 7 6 C6.01 6.33 5.02 6.66 4 7 C1.23609263 4.59660228 0.95934081 3.83736322 0 0 Z " fill="#53CC5A" transform="translate(295,206)"/>
<path d="M0 0 C2.64 0 5.28 0 8 0 C5.08596738 1.94268841 2.14191424 3.46395304 -1 5 C-1 2 -1 2 0 0 Z " fill="#E8F1F6" transform="translate(236,193)"/>
<path d="M0 0 C0.99 0.33 1.98 0.66 3 1 C-0.465 3.97 -0.465 3.97 -4 7 C-4 6.01 -4 5.02 -4 4 C-3.34 4 -2.68 4 -2 4 C-2 3.01 -2 2.02 -2 1 C-1.34 0.67 -0.68 0.34 0 0 Z " fill="#DDFEE1" transform="translate(336,185)"/>
<path d="M0 0 C1.65 0 3.3 0 5 0 C5.33 0.66 5.66 1.32 6 2 C5.0625 4.125 5.0625 4.125 4 6 C3.67 4.68 3.34 3.36 3 2 C2.01 2 1.02 2 0 2 C0 1.34 0 0.68 0 0 Z " fill="#23CA32" transform="translate(343,182)"/>
<path d="M0 0 C-1.29299694 2.88437779 -2.65941363 4.87219421 -5 7 C-5.33 5.35 -5.66 3.7 -6 2 C-2.25 0 -2.25 0 0 0 Z " fill="#253A55" transform="translate(340,345)"/>
<path d="M0 0 C0.33 0 0.66 0 1 0 C1.22162329 1.62324086 1.42689803 3.248721 1.625 4.875 C1.74101562 5.77992188 1.85703125 6.68484375 1.9765625 7.6171875 C1.98429688 8.40351563 1.99203125 9.18984375 2 10 C1.34 10.66 0.68 11.32 0 12 C-0.92844389 7.66726186 -0.92844389 4.33273814 0 0 Z " fill="#BECAD5" transform="translate(213,288)"/>
<path d="M0 0 C1.32 0.66 2.64 1.32 4 2 C-0.75 5 -0.75 5 -3 5 C-3.33 5.66 -3.66 6.32 -4 7 C-3.6875 5.0625 -3.6875 5.0625 -3 3 C-2.01 2.67 -1.02 2.34 0 2 C0 1.34 0 0.68 0 0 Z " fill="#31485E" transform="translate(226,243)"/>
<path d="M0 0 C0.99 1.32 1.98 2.64 3 4 C1 5 -1 6 -3 7 C-2.67 5.35 -2.34 3.7 -2 2 C-1.34 2 -0.68 2 0 2 C0 1.34 0 0.68 0 0 Z " fill="#274263" transform="translate(236,222)"/>
<path d="M0 0 C-4.95 1.485 -4.95 1.485 -10 3 C-10 2.01 -10 1.02 -10 0 C-6.05523353 -0.80688405 -4.00001715 -1.00000429 0 0 Z " fill="#22384D" transform="translate(218,178)"/>
</svg>
